<?xml version="1.0" encoding="UTF-8"?>
<svg id="Capa_2" data-name="Capa 2" xmlns="http://www.w3.org/2000/svg" xmlns:xlink="http://www.w3.org/1999/xlink" viewBox="0 0 1080 1106.92">
  <defs>
    <style>
      .cls-1 {
        clip-path: url(#clippath);
      }

      .cls-2 {
        fill: #041a38;
      }

      .cls-3 {
        fill: none;
      }
    </style>
    <clipPath id="clippath">
      <rect class="cls-3" width="1080" height="1106.92"/>
    </clipPath>
  </defs>
  <g id="Capa_1-2" data-name="Capa 1">
    <g class="cls-1">
      <g>
        <path class="cls-2" d="m281.61,566.13c-.64,2.18-1.82,5.49-2.55,7.02-1.19.26-4.93,1.13-8.39,1.13-12.27,0-17.33-7.54-17.33-14.47,0-9.02,7.21-15.12,18.15-15.12,3.97,0,7.48.91,8.62,1.04.23,2.05.55,5.27.87,7.19l-1.82.3c-.96-3.4-2.33-5.01-4.74-5.93-1.09-.44-2.74-.61-3.97-.61-6.61,0-9.94,5.27-9.94,12.12,0,7.97,4.29,13.38,10.54,13.38,3.83,0,6.39-1.92,8.85-6.71l1.73.65Z"/>
        <path class="cls-2" d="m301.9,544.69c8.44,0,15.32,5.88,15.32,14.47,0,9.28-6.93,15.12-15.55,15.12-9.12,0-15.73-6.36-15.73-14.77,0-7.45,5.56-14.82,15.96-14.82Zm-.68,1.92c-4.65,0-8.07,4.36-8.07,12.07s3.06,13.68,9.21,13.68c4.33,0,7.71-4.01,7.71-11.98,0-8.63-3.56-13.77-8.85-13.77Zm-2.69-5.54l7.84-7.28c1,.48,3.38,2.22,4.1,3.22l-.05.39-10.9,4.97-1-1.31Z"/>
        <path class="cls-2" d="m335.65,545.3c5.84,0,10.12,1.18,13.04,3.79,2.33,2.05,4.1,5.1,4.1,9.5,0,5.01-2.19,8.85-5.7,11.38-3.38,2.44-7.71,3.66-12.91,3.66h-12.54v-1.61c3.47-.26,3.88-.65,3.88-4.27v-16.56c0-3.66-.5-4.01-3.88-4.27v-1.61h14Zm-3.79,22.14c0,3.09.82,4.14,4.15,4.14,6.16,0,9.71-4.1,9.71-12.33,0-4.14-1.19-7.76-3.28-9.63-1.92-1.83-4.29-2.44-7.34-2.44-1.69,0-2.46.35-2.74.61-.41.39-.5,1.13-.5,2.4v17.26Z"/>
        <path class="cls-2" d="m357.22,573.62v-1.61c3.47-.3,3.88-.57,3.88-4.23v-16.6c0-3.66-.46-4.01-3.88-4.27v-1.61h14.09v1.61c-3.42.3-3.88.61-3.88,4.27v16.6c0,3.62.41,3.88,3.88,4.23v1.61h-14.09Z"/>
        <path class="cls-2" d="m406.29,561.68c-2.6.44-2.92.61-2.92,3.57v3.36c0,1.57.05,3.05.27,4.23-2.33.39-7.34,1.44-11.04,1.44-10.72,0-16.88-6.23-16.88-14.86,0-9.8,8.35-14.73,18.06-14.73,3.69,0,7.71.87,9.21,1,.09,1.92.46,5.23.78,7.63l-1.78.3c-1.09-3.71-2.78-5.58-5.61-6.49-1.05-.35-2.74-.52-3.88-.52-5.52,0-9.67,4.57-9.67,12.07s2.83,13.73,10.31,13.73c.91,0,2.1-.13,2.92-.61.68-.39,1.05-1.13,1.05-2.48v-3.83c0-3.05-.64-3.36-4.47-3.79v-1.61h13.64v1.61Z"/>
        <path class="cls-2" d="m427.54,544.69c8.44,0,15.32,5.88,15.32,14.47,0,9.28-6.93,15.12-15.55,15.12-9.12,0-15.73-6.36-15.73-14.77,0-7.45,5.56-14.82,15.96-14.82Zm-.68,1.92c-4.65,0-8.07,4.36-8.07,12.07s3.06,13.68,9.21,13.68c4.33,0,7.71-4.01,7.71-11.98,0-8.63-3.56-13.77-8.85-13.77Z"/>
        <path class="cls-2" d="m471.6,545.3c5.84,0,10.12,1.18,13.04,3.79,2.33,2.05,4.1,5.1,4.1,9.5,0,5.01-2.19,8.85-5.7,11.38-3.38,2.44-7.71,3.66-12.91,3.66h-12.54v-1.61c3.47-.26,3.88-.65,3.88-4.27v-16.56c0-3.66-.5-4.01-3.88-4.27v-1.61h14Zm-3.79,22.14c0,3.09.82,4.14,4.15,4.14,6.16,0,9.71-4.1,9.71-12.33,0-4.14-1.19-7.76-3.28-9.63-1.92-1.83-4.29-2.44-7.34-2.44-1.69,0-2.46.35-2.74.61-.41.39-.5,1.13-.5,2.4v17.26Z"/>
        <path class="cls-2" d="m518.2,566.21c-.23,1.18-1.5,6.19-1.92,7.41h-23.67v-1.57c4.15-.39,4.42-.61,4.42-4.27v-16.65c0-3.71-.55-3.96-3.65-4.23v-1.61h14.82c4.79,0,6.39-.04,7.02-.09.05.78.27,4.36.46,7.06l-1.78.22c-.41-1.48-1.19-3.27-1.96-4.05-.82-.87-1.41-1.13-3.74-1.13h-2.96c-1.73,0-1.92.09-1.92,1.57v9.11h4.47c2.55,0,3.01-.65,3.69-3.75h1.78v9.72h-1.78c-.73-3.22-1.09-3.75-3.74-3.75h-4.42v7.5c0,3.01.09,3.92,2.92,3.96h3.24c2.55,0,3.24-.3,4.24-1.48,1.14-1.26,2.05-2.88,2.78-4.36l1.69.39Z"/>
        <path class="cls-2" d="m560.66,546.91c-3.01.3-3.92.7-5.66,4.84-1.41,3.36-6.11,14.16-9.49,22.36h-2.51c-1.28-3.4-7.21-18.35-9.12-22.97-1.41-3.27-2.01-3.96-4.97-4.23v-1.61h13.91l-.04,1.61c-3.33.44-3.33.74-2.6,2.57,1.41,3.66,4.83,12.64,6.39,16.47,2.74-6.23,5.2-12.16,6.25-14.99,1.14-3.01.82-3.66-3.01-4.05v-1.61h10.86v1.61Z"/>
        <path class="cls-2" d="m588.07,566.21c-.23,1.18-1.5,6.19-1.92,7.41h-23.67v-1.57c4.15-.39,4.42-.61,4.42-4.27v-16.65c0-3.71-.55-3.96-3.65-4.23v-1.61h14.82c4.79,0,6.39-.04,7.02-.09.05.78.27,4.36.46,7.06l-1.78.22c-.41-1.48-1.19-3.27-1.96-4.05-.82-.87-1.41-1.13-3.74-1.13h-2.96c-1.73,0-1.92.09-1.92,1.57v9.11h4.47c2.55,0,3.01-.65,3.7-3.75h1.78v9.72h-1.78c-.73-3.22-1.1-3.75-3.74-3.75h-4.42v7.5c0,3.01.09,3.92,2.92,3.96h3.24c2.55,0,3.24-.3,4.24-1.48,1.14-1.26,2.05-2.88,2.78-4.36l1.69.39Z"/>
        <path class="cls-2" d="m608.96,552.49c-.91-2.79-2.19-5.97-6.39-5.97-2.65,0-4.38,1.79-4.38,4.23s1.69,3.84,5.7,5.75c4.88,2.31,7.98,4.58,7.98,8.89,0,5.14-4.47,8.89-10.99,8.89-2.92,0-5.52-.74-7.66-1.35-.27-1-1.05-5.53-1.37-7.58l1.78-.39c.91,2.75,3.47,7.5,7.94,7.5,2.78,0,4.47-1.66,4.47-4.45,0-2.53-1.64-4.01-5.47-5.97-4.74-2.44-7.84-4.62-7.84-9.15s3.74-8.19,10.58-8.19c3.15,0,5.52.65,6.52.78.18,1.61.5,3.88.87,6.62l-1.73.39Z"/>
        <path class="cls-2" d="m640.92,552.84c-.5-2-1.5-3.66-1.96-4.27-.82-.92-1.19-1.26-3.88-1.26h-2.92v20.48c0,3.66.46,3.92,4.51,4.23v1.61h-15.14v-1.61c3.88-.3,4.29-.57,4.29-4.23v-20.48h-2.78c-2.55,0-3.28.39-4.15,1.44-.64.83-1.28,2.4-1.87,4.14h-1.73c.32-3.18.64-6.58.73-8.67h1.37c.68,1,1.23,1.09,2.6,1.09h18.24c1.23,0,1.87-.26,2.65-1.09h1.32c.05,1.83.23,5.67.46,8.5l-1.73.13Z"/>
        <path class="cls-2" d="m646.3,573.62v-1.61c3.47-.3,3.88-.57,3.88-4.23v-16.6c0-3.66-.46-4.01-3.88-4.27v-1.61h14.09v1.61c-3.42.3-3.88.61-3.88,4.27v16.6c0,3.62.41,3.88,3.88,4.23v1.61h-14.09Z"/>
        <path class="cls-2" d="m688.85,573.62v-1.61c3.47-.35,3.69-.65,3.69-4.58l-.04-17c-3.29,7.5-6.89,15.78-10.17,23.18h-1.5c-2.96-7.1-6.2-15.21-9.49-22.83-.59,13.68-.59,16.38-.59,17.95.04,2.35.96,2.96,4.38,3.27v1.61h-11.31v-1.61c2.6-.22,3.79-.7,4.15-3.31.18-1.31.36-3.79,1.41-18.17.14-2.09-.18-3.27-4.1-3.62v-1.61h9.85l8.8,19.22,8.85-19.22h9.62v1.61c-3.65.35-4.06.7-3.97,4.18l.37,16.34c.05,3.92.23,4.1,3.92,4.58v1.61h-13.87Z"/>
        <path class="cls-2" d="m731.58,566.21c-.23,1.18-1.5,6.19-1.92,7.41h-23.67v-1.57c4.15-.39,4.42-.61,4.42-4.27v-16.65c0-3.71-.55-3.96-3.65-4.23v-1.61h14.82c4.79,0,6.38-.04,7.02-.09.05.78.27,4.36.46,7.06l-1.78.22c-.41-1.48-1.19-3.27-1.96-4.05-.82-.87-1.41-1.13-3.74-1.13h-2.96c-1.73,0-1.92.09-1.92,1.57v9.11h4.47c2.55,0,3.01-.65,3.69-3.75h1.78v9.72h-1.78c-.73-3.22-1.09-3.75-3.74-3.75h-4.42v7.5c0,3.01.09,3.92,2.92,3.96h3.24c2.55,0,3.24-.3,4.24-1.48,1.14-1.26,2.05-2.88,2.78-4.36l1.69.39Z"/>
        <path class="cls-2" d="m766.52,546.91c-2.78.35-3.65.91-3.79,2.88-.14,1.7-.27,3.18-.27,6.97v17.35h-2.55l-19.02-21.79v9.85c0,3.79.09,5.49.23,6.76.18,1.92,1.14,2.92,4.52,3.09v1.61h-11.31v-1.61c2.6-.22,3.74-.87,4.01-2.92.18-1.57.27-3.14.27-6.93v-10.33c0-1.44-.09-2.4-.96-3.53-.82-1.09-1.92-1.22-3.83-1.39v-1.61h8.89l17.38,19.31v-7.85c0-3.79-.04-5.23-.18-6.84-.14-1.87-.87-2.79-4.65-3.01v-1.61h11.27v1.61Z"/>
        <path class="cls-2" d="m795.7,552.84c-.5-2-1.51-3.66-1.96-4.27-.82-.92-1.19-1.26-3.88-1.26h-2.92v20.48c0,3.66.46,3.92,4.51,4.23v1.61h-15.14v-1.61c3.88-.3,4.29-.57,4.29-4.23v-20.48h-2.78c-2.55,0-3.28.39-4.15,1.44-.64.83-1.28,2.4-1.87,4.14h-1.73c.32-3.18.64-6.58.73-8.67h1.37c.68,1,1.23,1.09,2.6,1.09h18.24c1.23,0,1.87-.26,2.65-1.09h1.32c.04,1.83.23,5.67.46,8.5l-1.73.13Z"/>
        <path class="cls-2" d="m813.44,573.62v-1.61c2.87-.39,2.87-.87,2.24-2.75-.46-1.31-1.19-3.27-1.87-5.01h-8.89c-.5,1.35-1.14,3.01-1.6,4.36-.96,2.75.14,3.1,3.74,3.4v1.61h-11.26v-1.61c2.87-.35,3.6-.74,5.15-4.4l9.49-22.53,2.19-.39c2.92,7.58,6.02,15.34,8.99,22.62,1.69,4.05,2.1,4.36,5.06,4.71v1.61h-13.23Zm-4.01-20.83c-1.32,3.14-2.6,6.06-3.74,9.24h7.25l-3.51-9.24Z"/>
      </g>
      <g>
        <path class="cls-2" d="m765.89,471.18c-1.66.12-4.7-.47-7.71-1.05-5.92-1.14-11.39-.52-16.62,2.82-7.08,4.51-14.78,5.53-23,3.42-5.6-1.44-11.33-1.89-16.86.45-3.29,1.4-6.47,3.07-9.79,4.42-6.74,2.74-13.85,3.58-21,4.1-11.43.83-22.86.53-34.22-1.02-5.64-.77-11.09-2.31-16.12-5.03-4.97-2.68-10.13-4.57-15.84-3.98-3.87.4-7.69,1.21-11.53,1.87-6.33,1.08-12.32-.25-17.51-3.67-5.55-3.66-11.31-4.28-17.48-3.02-10.8,2.2-20.83.07-30.4-5.05-2.31-1.23-2.77-3.67-.82-5.42,9.88-8.89,15.71-20.47,21.33-32.15,8.2-17.03,14.47-34.82,20.23-52.79,4.44-13.84,8.05-27.89,11.19-42.08,3.98-17.99,6.99-36.15,10.05-54.3,2.78-16.48,5.3-33,8.12-49.47,1.74-10.16,3.88-20.24,7.08-30.07,3.68-11.31,9.15-21.77,15.15-31.98,1.08-1.84,2.14-3.7,3.2-5.56.81-1.41.94-2.98,1-4.56.25-6.6-.94-13.01-2.52-19.38-2.06-8.33-5.39-16.21-8.68-24.1-3.48-8.34-4.56-16.84-1.2-25.51.61-1.57.79-3.17.62-4.81-.89-8.65-2.33-17.19-5.39-25.38-.59-1.59-1.36-3.11-1.98-4.69-.86-2.21-.41-3.81,1.63-4.99,4.38-2.55,9.06-4.35,14.05-5.31,2.15-.41,3.74.73,4.48,3.1,1.76,5.67,2.69,11.49,3.24,17.39.26,2.75.47,5.51.35,8.28-.05,1.28.48,1.9,1.68,2.31,9.37,3.19,17.69,8.09,24.58,15.28,1.04,1.09,2.09,2.19,3,3.38.87,1.14,1.44,1.19,2.41.03,4.76-5.69,10.23-10.54,16.73-14.19,3.69-2.07,7.54-3.77,11.6-4.93,1.33-.38,1.74-1.05,1.78-2.4.24-8.6,1.89-16.97,4.27-25.21.68-2.36,2.76-3.5,5.13-2.92,4,.98,7.8,2.45,11.21,4.79,2.23,1.53,2.67,2.78,1.75,5.33-3.14,8.74-5.11,17.75-6.23,26.94-.36,2.98-.49,5.93.46,8.93,2.71,8.61,1.1,16.91-2.29,24.99-2.89,6.9-5.7,13.84-7.47,21.13-1.47,6.05-2.71,12.15-2.93,18.4-.14,3.92.73,7.43,2.93,10.85,8.27,12.84,15.15,26.38,19.18,41.21,2.77,10.2,4.93,20.52,6.57,30.96,2.89,18.31,5.61,36.65,8.74,54.91,4.89,28.51,11.2,56.72,19.18,84.53,5.4,18.8,11.45,37.4,19.74,55.16,4.75,10.17,10.2,19.92,18.27,27.95,1.96,1.95,1.7,3.99-.58,5.52-6.44,4.34-13.58,6.4-22.78,6.54Zm-106.24-315.2v.02c-8.87,0-17.73,0-26.6,0-1.09,0-2.21-.13-2.25,1.5-.12,4.81-2.61,8.73-4.94,12.67-4.58,7.75-8.74,15.7-12.15,24.04-5.09,12.43-7.66,25.52-9.92,38.65-3.29,19.08-6.18,38.22-9.39,57.31-2.61,15.49-5.34,30.97-8.88,46.29-2.6,11.27-5.25,22.54-8.69,33.58-6.08,19.51-12.59,38.86-21.3,57.41-5.43,11.57-10.93,23.09-19.55,32.74-.97,1.09-.95,1.79.53,2.31,5.4,1.9,10.96,2.98,16.67,2.3,8.68-1.03,8.63-1.16,13.6-8.49,5.79-8.53,10.09-17.84,14.09-27.27,9.87-23.24,17.51-47.26,23.86-71.68,4.8-18.44,8.7-37.06,11.22-55.97,1.82-13.64,3.58-27.28,5.06-40.97.98-9.06,1.86-18.12,2.84-27.18.1-.91-.18-2.53,1.05-2.46,1.32.07.93,1.68.97,2.68.23,7.42-.17,14.83-.4,22.24-.1,3.26-.16,6.53-.36,9.79-.72,11.66-1.83,23.29-2.85,34.93-1.13,12.83-2.64,25.62-3.61,38.46-.86,11.33-2.19,22.63-3.21,33.95-1.3,14.46-2.93,28.87-5.36,43.19-3.17,18.73-8.64,36.69-18.08,53.3-.24.42-.75.87-.37,1.35.35.45.94.16,1.42.07,3.03-.53,6.06-1.12,9.1-1.6,7.04-1.11,13.6.4,19.85,3.66,5.22,2.72,10.72,4.65,16.6,5.37,11.4,1.4,22.83,1.44,34.26.6,7.32-.54,14.57-1.76,21.04-5.39,8.12-4.56,16.55-5.55,25.49-3.36,1.71.42,3.46.66,5.2.92.52.08,1.21.31,1.56-.28.29-.5-.22-.93-.45-1.35-.44-.83-.93-1.64-1.37-2.47-6.58-12.51-10.68-25.9-13.64-39.64-2.69-12.49-4.12-25.17-5.57-37.85-1.83-16.04-3.2-32.12-4.44-48.21-.86-11.03-2.02-22.02-3.21-33.01-1.32-12.18-2.47-24.38-3.16-36.61-.71-12.67-1.1-25.37-.87-38.07,0-.5,0-1.01.06-1.51.06-.51.21-1.06.83-1.09.63-.03.81.5.93,1,.09.36.11.74.15,1.12,1.3,12.24,2.28,24.52,3.68,36.75,1.74,15.23,3.73,30.42,6.22,45.55,3.43,20.81,8.47,41.25,14.47,61.44,5.86,19.71,12.45,39.18,20.88,57.98,3.71,8.27,7.79,16.32,12.77,23.93,2.31,3.52,4.94,5.63,9.3,5.9,6.27.39,12.3-.14,18.08-2.69,1.02-.45,1.59-.8.51-1.96-3.44-3.7-6.27-7.87-8.82-12.21-9.09-15.48-15.52-32.14-21.01-49.15-5.96-18.49-11.08-37.21-15.52-56.14-5.26-22.41-9.61-44.98-13.15-67.72-2.76-17.76-5.31-35.56-8.81-53.2-3.73-18.84-10.68-36.38-21.11-52.53-2.1-3.25-4.48-6.48-4.41-10.64.03-1.8-.62-2.36-2.43-2.34-8.8.08-17.61.04-26.41.04Zm-.24-6.1h0c5.41-.01,10.81-.05,16.22,0,1.57.02,2.31-.47,2.28-2.15-.05-2.71.39-5.38.77-8.06,1.68-11.65,4.69-22.9,10.15-33.39.43-.83.77-2.3,1.99-1.8,1.29.53.39,1.79.07,2.64-2.73,7.38-5.02,14.89-6.72,22.57-1.14,5.16-2.24,10.33-2.42,15.63-.15,4.32-.1,4.22,4.18,4.25,1.91.01,2.64-.65,2.86-2.52,1.28-10.68,4.28-20.9,8.39-30.82,2.67-6.44,5.54-12.82,4.95-20.1-.46-5.72-2.47-10.7-6.13-15.1-1.48-1.78-3.02-2.2-5.27-1.46-9.49,3.1-17.56,8.31-24.13,15.83-1.53,1.75-2.93,3.61-4.49,5.33-1.72,1.9-3.59,1.84-5.34-.02-.43-.46-.82-.95-1.21-1.45-6.91-8.74-15.45-15.23-26.06-18.85-4.33-1.48-4.38-1.5-7.17,2.11-6.6,8.53-7.65,17.9-3.58,27.73,4.7,11.34,9.2,22.72,11.17,34.93.67,4.18.74,4.17,4.94,4.58,2.52.25,2.82-.07,2.57-2.67-1.33-13.72-4.36-27.03-9.35-39.89-.2-.52-.37-1.07-.48-1.62-.09-.46.06-.89.51-1.12.47-.25.88-.03,1.17.32.32.38.62.79.86,1.23,2.15,4.06,4.03,8.29,5.4,12.64,2.99,9.49,4.93,19.23,5.48,29.2.09,1.55.63,2.07,2.15,2.05,5.41-.06,10.81-.02,16.22-.02Zm47.09,198.95c-.08.01-.16.02-.25.03.06,1.18.07,2.36.2,3.53,1.05,9.23,2.07,18.47,3.22,27.69,1.87,15.08,3.53,30.2,6.49,45.13,2.79,14.06,6.91,27.69,13.57,40.43,2.8,5.36,1.82,5.43,7.67,2.29,3.28-1.76,6.52-3.51,10.22-4.26,2.13-.43,2.26-.77.98-2.57-6.04-8.52-10.42-17.91-14.56-27.43-4.16-9.57-7.99-19.27-11.31-29.17-4.4-13.11-8.57-26.29-12.06-39.68-1.39-5.33-2.79-10.66-4.18-16Zm-93.53-1.14c-.08-.01-.17-.03-.25-.04-.4,1.7-.8,3.4-1.2,5.11-4.44,19.05-10.05,37.77-16.7,56.15-6.76,18.68-13.97,37.19-25.68,53.52-.63.88-.7,1.38.54,1.64,2.8.58,5.32,1.85,7.79,3.25,1.64.93,3.37,1.68,5.07,2.5,1.46.7,2.54.44,3.51-1,1.66-2.46,3-5.1,4.27-7.75,8.79-18.34,13.19-37.9,15.89-57.92,1.54-11.45,2.96-22.91,4.36-34.38.86-7.02,1.6-14.05,2.39-21.08Zm9.54-278.17c-.16-6.5-1.07-12.14-2.11-17.77-.29-1.59-.95-2.23-2.56-1.54-1.44.62-2.91,1.2-4.39,1.72-1.17.41-1.35,1.07-.91,2.17.75,1.87,1.42,3.76,2.05,5.67,1.67,5.03,2.67,10.21,3.44,15.44.07.49.04,1.14.51,1.35.56.25.79-.46,1.19-.73,2.55-1.72,3.27-4.15,2.77-6.31Zm78.25,6.85c.1-.53.19-.89.24-1.25,1-6.54,2.49-12.96,4.47-19.27,1.2-3.81,1.13-3.94-2.69-5.39-.12-.04-.24-.09-.35-.14-1.26-.56-2.03-.21-2.37,1.16-1.47,5.93-2.49,11.91-2.92,18.02-.22,3.11.92,5.16,3.62,6.87Z"/>
        <g>
          <path class="cls-2" d="m334.11,166.18c-1.55,8.69-2.62,17.12-3.71,25.54-1.3,10-2.52,20.02-3.57,30.05-.82,7.84-1.36,15.71-1.96,23.57-.31,4.02-.49,8.05-.72,12.08-.04.76-.12,1.59-.88,1.88-1.46.56-1.32,1.72-1.3,2.88.11,4.75,1.24,5.01-4.96,5.75-6.43.77-12.86,1.63-19.29,2.41-3.25.4-4.24-.43-4.57-3.63-.09-.85-.29-1.7-.28-2.55.01-1.36-.27-2.32-1.81-2.7-1.11-.27-1.61-1.25-1.61-2.41.04-9.66-.18-19.33.31-28.99.17-3.3.25-6.6.37-9.9.56-16.5,1.83-32.96,3.37-49.39,1.53-16.44,3.3-32.85,6.21-49.12,1.99-11.14,3.89-22.3,7.12-33.17,1.14-3.85,2.09-7.8,4.66-11.09,1.36-1.74,2.95-3.04,4.98-3.89,10.49-4.39,21.01-8.73,31.44-13.28,5.49-2.39,10.99-4.86,15.21-9.36.89-.95,1.7-1.92,2.17-3.14,1.09-2.81,3.17-4.55,5.9-5.68,5.18-2.14,10.67-2.64,16.16-2.96,6.18-.37,12.33.08,18.42,1.38,4.96,1.06,9.01,3.06,11.24,8.08,1.31,2.95,4.1,4.78,6.79,6.54,5.05,3.31,10.71,5.35,16.21,7.71,8.43,3.62,16.86,7.24,25.35,10.71,3.66,1.5,5.64,4.38,7.15,7.72,1.85,4.09,2.91,8.44,3.94,12.78,4.73,19.84,7.9,39.95,10.18,60.2,1.63,14.46,2.88,28.95,3.83,43.48.87,13.42,1.55,26.85,1.9,40.3.17,6.67.15,13.33.25,19.99.03,1.81-.32,3.32-2.46,3.66-.97.16-.99.99-1.08,1.7-.17,1.33-.21,2.68-.41,4.01-.39,2.56-1.22,3.29-3.84,3.03-4.44-.45-8.86-1.05-13.29-1.61-3.15-.4-6.3-.84-9.45-1.25-1.7-.22-2.46-1.13-2.3-2.87.1-1.09.04-2.2.08-3.3.03-.79-.11-1.44-.91-1.82-1.02-.49-1.24-1.43-1.29-2.45-.76-16.56-2.37-33.05-4.14-49.52-1.5-13.98-3.5-27.9-5.9-42.3-.87,3.45-.95,6.47-1.2,9.47-.53,6.56.73,12.9,2.45,19.19,2,7.32,3.57,14.73,4.76,22.22.16,1.03.12,2.04-.75,2.68-1.16.86-1.09,1.98-.89,3.13,2.42,14.35,3.91,28.82,5.55,43.27.22,1.91-.44,3.05-2.05,3.84-.16.08-.32.21-.5.24-3.58.6-4.57,2.9-4.82,6.29-.57,7.74-1.54,15.44-2.32,23.16-.71,7.05-1.43,14.1-2.05,21.16-.48,5.48-.87,10.96-1.23,16.45-.62,9.57-1.2,19.15-1.76,28.73-.32,5.43-.63,10.86-.79,16.3-.44,15.09-1.34,30.17-1.6,45.27-.13,7.64-.44,15.28-.69,22.91-.07,2.2-.23,4.39-.3,6.59-.03,1.03-.52,1.73-1.36,2.23-1.52.91-3.02,1.86-4.58,2.71-1.18.65-1.38,1.24-.45,2.39,2.62,3.24,4.27,6.97,4.99,11.09.68,3.87-.74,6.65-4.32,8.39-3.13,1.52-6.52,2.05-9.93,2.46-5.94.71-11.84.25-17.67-1.01-.3-.06-.59-.14-.89-.23-6.04-1.75-8.1-5.16-6.89-11.33.62-3.14,1.62-6.17,3.19-8.95.79-1.41.41-2.04-.82-2.73-1.33-.74-2.55-1.68-3.87-2.46-1.43-.84-1.93-2.02-1.91-3.66.13-8.07.22-16.13.24-24.2.03-15.48.06-30.96,0-46.43-.06-15.29-.13-30.57-.39-45.86-.18-10.82-.52-21.64-1.11-32.45-.51-9.33-1.23-18.66-2.76-27.96-.47,4.18-1.04,8.35-1.37,12.54-.95,12.01-1.32,24.04-1.66,36.08-.19,6.73-.14,13.45-.27,20.18-.69,35.42-.25,70.84-.29,106.25,0,3.34-1.01,5.47-3.98,6.83-1.27.58-2.92,1.13-3.52,2.19-.68,1.21,1,2.38,1.47,3.67,1.03,2.82,2.14,5.59,2.57,8.59.54,3.79-.82,6.55-4.22,8.35-2.98,1.58-6.25,2.13-9.53,2.5-6.17.7-12.33.51-18.39-.98-.83-.2-1.64-.48-2.44-.79-5.08-1.94-6.64-4.83-5.58-10.2.73-3.69,2.48-6.9,4.76-9.82.95-1.22.72-1.82-.53-2.53-7.27-4.17-5.71-2.74-5.92-10.36-.41-14.48-.73-28.97-1.17-43.45-.28-9.23-.62-18.45-1.07-27.67-.68-14.22-1.33-28.45-2.25-42.66-.76-11.64-1.95-23.26-3.11-34.87-.98-9.79-1.88-19.58-3.02-29.36-.14-1.15-.51-1.88-1.67-2.32-6.74-2.58-5.6-2.53-5.04-8.33,1.18-12.23,2.56-24.43,4.46-36.57.17-1.09.32-2.18.55-3.25.3-1.37.37-2.57-.9-3.63-.99-.83-.76-2.11-.57-3.28,1.26-7.92,3.12-15.71,5.22-23.44,2.28-8.41,2.47-16.84.72-25.69Zm34.71,295.05h.02c-2.08-1-4.31-.8-6.48-.63-5.57.45-10.12,2.66-12.7,7.94-1.89,3.88-1.23,5.65,2.75,7.4.33.15.68.28,1.03.39,6.89,2.31,13.78,2.27,20.66-.07,1.58-.54,3.01-1.33,4.11-2.63.57-.67.93-1.4.81-2.34-.64-5.14-5.02-9.47-10.2-10.07Zm62-398.31c1.71,3.83,3.14,7.14,4.67,10.39.73,1.55.38,2.39-1.25,2.85-.77.22-1.62.39-2.32,1.16,1.22.57,2.27,1.06,3.31,1.56,4.14,1.97,4.12,1.96,2.46,6.19-3.57,9.05-7.51,17.93-11.61,26.75-.54,1.16-.72,1.79,1.02,1.55,6.54-.91,13.09-1.66,19.63-2.58,1.73-.25,2.22.41,2.18,1.95-.04,1.71,0,3.43-.02,5.14-.03,3.03-.08,3.06-3.16,3.48-8.12,1.11-16.23,2.25-24.35,3.35-1.12.15-1.89.61-2.43,1.65-1.15,2.23-2.41,4.4-3.62,6.59-7.38,13.38-15.92,25.97-25.91,37.52-1.9,2.2-2.56,4.39-2.54,7.12.03,3.55.23,7.09.3,10.63.26,11.74.78,23.45,2.66,35.07,2.07,12.84,6.02,25.09,11.9,36.66,3.13,6.16,7.97,10.49,15.2,10.99,7.4.52,14.79.12,22.1-1.3,3.92-.76,3.87-.78,3.46-4.67-.99-9.36-1.9-18.73-2.87-28.09-.52-4.98-1.11-9.96-1.61-14.95-.15-1.46-.58-2.1-2.26-1.95-2.49.22-5.01.13-7.52.05-3.5-.1-5.48-1.81-5.96-5.24-.34-2.42-.43-4.87-.62-7.3-.42-5.31-.93-5.54,5.06-5.47,1.45.02,1.76-.48,1.59-1.83-.74-6.01-1-12.07-1.08-18.11-.15-11.7.8-23.33,3.09-34.82.91-4.56,2.02-9.07,3.73-13.41.18-.47.26-1.3.94-1.1.61.18.34.96.28,1.47-.12,1.09-.3,2.18-.52,3.26-3.29,16.05-5.11,32.23-4.62,48.64.14,4.77.51,9.51,1.06,14.25.14,1.24.65,1.67,1.87,1.65,3.18-.06,6.36-.02,9.54-.03q4.12-.01,2.94-4.04c-2.31-7.85-3.92-15.78-3.34-24.04.29-4.16.94-8.27,1.67-12.35,2.99-16.8,6.59-33.48,10.2-50.15,2.37-10.94,5.03-21.82,9.31-32.21.75-1.81.24-2.45-1.34-3.1-6.95-2.87-13.87-5.81-20.8-8.73-3.3-1.39-6.6-2.81-10.41-4.43Zm-80.02.37c-.72-.15-1.2.17-1.68.38-10.12,4.33-20.23,8.68-30.37,12.97-1.17.49-1.04,1.07-.66,1.97,2.96,7.14,4.97,14.58,6.87,22.05,3.01,11.86,5.37,23.86,7.74,35.86,2.09,10.56,4.23,21.11,5.84,31.75.93,6.14,1.13,12.26,0,18.42-.85,4.58-2.16,9.04-3.26,13.55-.2.8-.64,1.75.89,1.74,4.16-.02,8.32,0,12.48.01.89,0,1.34-.36,1.41-1.29.35-4.69.89-9.38,1.07-14.07.57-15.16-.85-30.16-3.82-45.03-.53-2.63-.87-5.31-1.27-7.97-.05-.33-.12-.81.32-.94.47-.14.61.33.73.65.47,1.2.98,2.38,1.33,3.61,3.06,10.75,4.83,21.72,5.35,32.87.44,9.28.31,18.57-.63,27.83-.43,4.27-.33,4.28,4.03,4.35.06,0,.12,0,.18,0,2.32.06,2.8.51,2.68,2.88-.16,3.05-.47,6.09-.66,9.14-.24,3.93-2.23,5.93-6.16,6-2.51.05-5.02.06-7.52-.02-1.41-.04-2.08.36-2.22,1.91-.45,4.87-1.07,9.72-1.59,14.58-1.09,10.33-2.13,20.67-3.25,31.01-.13,1.2.24,1.64,1.37,1.83,6.76,1.17,13.58,1.81,20.43,1.85,3.1.02,6.19-.45,9.12-1.75,4.76-2.1,7.69-5.91,10.11-10.26,2.53-4.57,4.21-9.49,5.98-14.38,1.89-5.22,3.62-10.42,1.46-15.99-.02-.06-.02-.12-.03-.18-2.95-16.19-3.5-32.55-3.65-48.95-.04-4.82.33-9.54,2-14.07.64-1.75.34-3.09-.87-4.5-6.28-7.31-11.5-15.37-16.39-23.64-10.28-17.38-18.33-35.79-25.26-54.72-.59-1.6-.11-2.33,1.31-2.98,1.8-.82,3.71-1.46,5.55-2.71-.71-.28-1.21-.48-1.72-.68-2.76-1.07-2.76-1.1-1.5-3.78,1.45-3.08,2.84-6.18,4.28-9.32Zm38.3,182.8c-.17.43-.35.86-.51,1.29-1.47,4.02-2.88,8.07-4.83,11.89-4.32,8.45-10.31,14.73-20.51,15.34-1.37.08-1.44.85-1.43,1.97.12,9.54.55,19.06.69,28.6.23,15.77.45,31.54.79,47.31.2,9.04.07,18.09.31,27.14.36,13.44.07,26.9.37,40.35.26,11.55.13,23.12.08,34.67,0,1.84.47,2.67,2.4,2.73,1.45.05,3.09.12,4.29.8,4.03,2.29,7.24.72,10.54-1.56,1.26-.87,1.94-1.7,1.78-3.24-.1-.97-.01-1.95,0-2.93.18-36.26-.29-72.52.31-108.79.2-12.53.48-25.05,1.14-37.57.6-11.55,1.59-23.06,3.62-34.44,1.4-7.82,1.28-15.64.97-23.56Zm2.89.89c0,1.53-.04,3.06,0,4.58.12,3.91-.42,7.83.32,11.72,2.18,11.42,3.98,22.88,4.78,34.49.98,14.09,1.45,28.2,1.77,42.32.25,11.06.33,22.13.38,33.19.06,14.19.06,28.38.02,42.57-.04,12.6-.18,25.2-.26,37.8,0,.89-.24,1.96.79,2.46,2.23,1.07,3.78,3.36,6.49,3.5.22.01.46-.15.68-.26,2.64-1.24,5.46-1.83,8.32-2.09,1.47-.13,1.99-.64,2-2.12.03-6.3.16-12.6.24-18.89.18-14.86-.03-29.72.31-44.58.31-14,.14-28.01.44-42.01.24-11.37.39-22.74.71-34.11.35-12.71.51-25.43.85-38.14.05-1.98-.57-2.84-2.5-2.81-.24,0-.48-.07-.73-.1-7.68-.81-13.35-4.67-17.3-11.25-3.07-5.12-5.03-10.72-7.33-16.27Zm-98.45.43s.04,0,.07,0c0,2.69,0,5.38,0,8.07,0,2.33.06,2.42,2.38,2.29,6.28-.35,12.56-.77,18.85-1.12,1.59-.09,2.18-.71,2.19-2.39.03-10.45-.09-20.9.23-31.36.48-15.4,1.3-30.76,2.61-46.11,1.36-15.98,3.69-31.79,7.16-47.45.31-1.41.34-2.77.08-4.18-1.58-8.35-3.38-16.65-5.44-24.89-1.64-6.59-3.55-13.1-5.89-19.48-.17-.47-.21-1.23-.91-1.21-.53.01-.68.64-.91,1.06-1.13,2.04-1.98,4.2-2.64,6.44-3.92,13.34-6.28,27.02-8.42,40.73-2.74,17.51-4.74,35.1-6.07,52.78-.87,11.64-1.8,23.27-2.35,34.92-.51,10.62-.63,21.26-.92,31.89Zm173.3-167.88c-.22.12-.38.15-.41.24-.4.96-.81,1.91-1.17,2.88-4.49,12.21-7.07,24.92-9.7,37.6-.56,2.71-1.61,5.41-.95,8.3,3.55,15.45,5.72,31.11,7.22,46.88,1.37,14.36,2.19,28.75,2.76,43.16.37,9.22.31,18.46.43,27.69.03,2.81.02,5.63,0,8.44-.01,1.16.33,1.85,1.63,1.92,6.41.36,12.81.78,19.21,1.13,2.32.12,2.6-.11,2.48-2.46-.4-8.12-.26-16.25-.53-24.38-.4-11.85-1.15-23.67-1.89-35.5-.69-11.04-1.63-22.05-2.73-33.05-1.57-15.69-3.7-31.31-6.6-46.81-1.76-9.43-3.33-18.91-6.17-28.1-.86-2.79-1.9-5.51-3.59-7.93Zm-46.54,349.08h-.1c0,8.81.03,17.61-.03,26.42-.01,1.59.28,2.63,2.1,2.66.42,0,.89.09,1.24.3,4.2,2.62,7.59.61,10.96-1.82.79-.57,1.13-1.17,1.13-2.11-.01-4.28.18-8.55.28-12.83.2-8.55.42-17.11.74-25.66.56-14.78,1.04-29.56,1.58-44.34.2-5.37.42-10.75.78-16.11.94-13.84,1.81-27.68,3.18-41.48,1.31-13.26,2.4-26.54,4.2-39.74.23-1.71-.26-1.87-1.68-1.55-6.64,1.51-13.39,2.14-20.18,2.41-1.67.07-2.01.68-2.04,2.2-.18,10.51-.44,21.02-.68,31.53-.25,11.18-.49,22.37-.75,33.55-.22,9.29-.03,18.58-.33,27.88-.37,11.49-.05,22.99-.36,34.48-.22,8.07-.04,16.14-.04,24.22Zm-59.6-53.87c-.11-5.68-.15-11.37-.23-17.05-.21-15.34-.41-30.68-.76-46.02-.27-11.55-.39-23.1-.76-34.65-.05-1.63-.51-2.21-2.2-2.27-6.36-.23-12.67-.94-18.92-2.21-2.49-.51-2.56-.47-2.28,1.98.85,7.65,1.74,15.3,2.57,22.95,1.53,14.15,2.97,28.32,3.86,42.53.76,12.07,1.35,24.16,1.85,36.24.49,11.91.82,23.82,1.11,35.73.33,13.14.7,26.28.69,39.42,0,3.51,1.22,5.24,4.19,6.69,2.24,1.09,4.14,1.76,6.45.44.82-.47,1.86-.67,2.82-.73,1.95-.12,2.34-1.15,2.31-2.9-.12-7.21-.17-14.43-.23-21.64-.15-19.5-.14-39.01-.48-58.51Zm28.46-209.27c6.19-7.5,11.78-15.36,16.83-23.58,11.24-18.29,20.07-37.76,28.14-57.6.57-1.4.24-2.05-1.03-2.72-3.67-1.93-7.47-3.67-10.68-6.38-.7-.59-2.23-1.17-1.75-1.98.51-.85,1.74.2,2.57.57,2.2.97,4.27,1.98,6.77.64,1.2-.64,1.5-1.12.94-2.35-1.6-3.5-3.12-7.04-4.69-10.56-.19-.43-.45-.95-.82-1.17-2.89-1.67-5.53-3.69-7.84-5.57-3.66,38.39-14.61,74.9-28.44,110.69Zm-27.87-92.46c-.39,1-1.13,1.47-1.76,1.97-2.76,2.15-5.72,3.98-8.89,5.46-4.94,2.31-4.07,1.63-2.45,6.02,6.1,16.55,13.48,32.51,22.21,47.85,4.51,7.93,9.53,15.52,15.11,22.74.56.73,1.32,2.24,1.91,1.84.99-.65,1.25-2.17,1.12-3.48-.06-.59-.35-1.17-.59-1.73-1.49-3.48-2.9-7-4.14-10.59-4.64-13.48-8.53-27.18-11.89-41.03-2.84-11.71-5.39-23.48-6.9-35.45-.42-3.34-.72-6.68-.67-10.05,0-.51.22-1.8-.9-1.02-2.46,1.72-4.97,3.34-7.47,4.99-.32.21-.5.68-.67,1.07-1.59,3.57-3.14,7.17-4.76,10.73-.45.99-.32,1.58.78,1.95,1.84.63,3.59.96,5.49.01,1.31-.65,2.67-1.42,4.47-1.29Zm29.09,77.43c.15.02.3.03.45.05,1.21-3.19,2.38-6.39,3.63-9.57.8-2.02,1.11-4.07,1.11-6.26-.04-20.97-.14-41.94.09-62.91.04-3.63-1.95-5.39-4.1-7.41-.27-.25-.57-.4-.99-.25-1.65.57-4.45,4.45-4.45,6.24.01,22.38.03,44.75.05,67.13,0,.85-.04,1.71.27,2.54,1.31,3.48,2.62,6.96,3.94,10.44Zm-61.89-14.42c-.08.29-.18.58-.24.87-3.32,15.13-5,30.5-6.29,45.91-1.12,13.39-1.82,26.82-2.17,40.25-.28,10.5-.29,21.01-.39,31.52,0,.54-.32,1.46.55,1.49.85.03.66-.88.67-1.44.2-7.03.9-14.01,1.45-21.02.73-9.38,1.68-18.74,2.74-28.08,1.71-15.11,3.78-30.18,6.36-45.17.38-2.22,1.14-4.46.83-6.71-.8-5.92-1.97-11.79-3.5-17.62Zm124.96-.41c-.19.01-.38.02-.57.03-.84,4.5-1.58,9.03-2.56,13.5-.67,3.06-.5,5.99.03,9.05,2.75,15.84,4.94,31.76,6.7,47.73,1.67,15.12,3.07,30.27,4.02,45.45.1,1.58.34,3.15.52,4.72.26-.03.52-.06.78-.09,0-40.35-1.27-80.61-8.92-120.4Zm-61.3-92.74c-2.56,0-5.14-.16-7.69.04-3.59.28-7.19.66-10.63,1.84-1.24.42-3,.55-3.27,2-.28,1.49,1.22,2.4,2.29,3.29,4.54,3.8,9.9,6.26,14.98,9.18,2.1,1.2,3.86,1.27,5.89-.05,1.58-1.03,3.37-1.74,5.03-2.64,3.83-2.07,7.5-4.4,10.68-7.38,2.58-2.42,2.36-3.3-.99-4.34-5.3-1.64-10.79-2.04-16.3-1.94Zm-22.24,30.62c3.16,19.47,7.83,38.53,13.74,57.28v-59.84c-2.56,2.9-4.92,5.52-7.22,8.19-.88,1.02-1.56.93-2.32-.1-1.38-1.86-2.8-3.69-4.2-5.53Zm28.49-1.98l-.52.13c.34,19.45-.03,38.9.05,58.45,4.05-10.91,14.1-52.9,13.47-56.28-1.19,1.58-2.32,3.17-3.53,4.69-1.4,1.77-1.88,1.77-3.38.06-2.04-2.34-4.06-4.7-6.09-7.05Zm45.84,148.27c-3.38.04-3.62.23-3.35,2.69.29,2.61.6,5.22.86,7.83.81,8.02,1.6,16.04,2.41,24.07.42,4.13.85,8.26,1.31,12.39.06.54-.09,1.45.83,1.36,2.33-.25,4.72-.74,6.54-2.16,1.13-.88.19-2.63.08-3.99-.03-.37-.07-.73-.11-1.1-1.43-12.7-2.99-25.37-4.93-38-.48-3.13-.53-3.12-3.63-3.09Zm-103.58,1.78c.25-1.84.07-1.31-2.39-1.67-.36-.05-.73-.07-1.1-.09-3.14-.13-3.1-.13-3.59,3.05-1.93,12.56-3.41,25.17-4.79,37.79-.66,6.06-1.53,5.22,4.9,7.23,1.48.46,2.03.19,2.19-1.44.72-7.65,1.54-15.3,2.36-22.94.75-6.98,1.54-13.95,2.42-21.93Zm4.52-16.47v-.02c-3.24,0-6.48.05-9.72-.02-1.28-.03-1.92.44-2.12,1.7-.42,2.65-.86,5.31-1.37,7.95-.23,1.22.21,1.65,1.39,1.74,6.78.51,13.56.25,20.34.22,1.37,0,2.1-.91,2.23-2.23.26-2.55.46-5.11.71-7.66.13-1.32-.55-1.7-1.75-1.68-3.24.04-6.48.01-9.72.01Zm91.04-.03s0,.03,0,.04c-3.3,0-6.6.03-9.91-.02-1.32-.02-1.71.52-1.56,1.79.26,2.24.43,4.5.6,6.75.18,2.42.84,3.12,3.33,3.09,6.36-.06,12.71.16,19.07-.3,1.48-.11,2-.68,1.74-2.05-.51-2.64-1.06-5.27-1.56-7.92-.22-1.15-.93-1.42-1.98-1.41-3.24.03-6.48.01-9.72.01Zm-67.56-155.75c-.94,3.85-1.12,7.49-.69,11.14.27,2.29.14,4.71,1.27,6.81,1.51,2.8,3.35,5.4,5.3,7.92.65.84,1.16.94,1.86.08,3.68-4.49,7.58-8.78,11.93-12.91-7-3.63-14.09-6.89-19.67-13.04Zm44.11.01c-3.22,3.96-7.39,6.37-11.54,8.79-2.11,1.23-4.31,2.31-6.45,3.47-.63.34-1.54.65-.61,1.56,3.9,3.8,7.35,8,10.99,12.04.72.8,1.24.75,1.88-.1,1.9-2.55,3.69-5.17,5.32-7.9.44-.74.67-1.56.79-2.42.59-4.13.49-8.28.38-12.44-.03-.97-.24-1.91-.75-3Zm69.29,217.27q2.52.1,2.89-2.03c.08-.48.1-.97.17-1.45.18-1.32-.35-1.83-1.72-1.89-3.22-.13-6.44-.45-9.66-.65-2.86-.18-5.72-.29-8.58-.45-1.24-.07-1.65.59-1.54,1.69.1.97-.6,2.35,1.17,2.58,5.86.75,11.72,1.5,17.28,2.21Zm-166.84-6.45c-4.88.36-9.87.8-14.87,1.07-3.73.2-3.69.11-3.44,3.88.08,1.22.37,1.75,1.73,1.57,6.12-.8,12.24-1.53,18.37-2.26.95-.11,1.38-.56,1.42-1.54.1-2.34-.36-2.78-3.21-2.71Zm106.27-138.63c4.36-.52,8.29-.95,12.22-1.46,3.39-.44,6.77-.94,10.16-1.44,1.53-.23,2.24-1.59,1.9-3.53-.28-1.61-1.45-.93-2.31-.82-5.94.77-11.87,1.58-17.8,2.36-.92.12-1.86.16-2.35,1.13-.57,1.14-1.11,2.29-1.82,3.76Zm-3.49,356.52c1.57.09,3.45-.21,5.33-.47,2.56-.37,5.06-1.03,7.22-2.51,1.3-.89,2.85-1.92,2.25-3.79-.72-2.27-1.74-4.45-3.46-6.19-4.33-4.39-9.73-5.02-15.46-4.25-4.34.58-7.94,2.4-9.94,6.58-2.26,4.74-1.89,6.89,3.99,9.11,3.09,1.17,6.41,1.57,10.08,1.53Zm-70.7-1.95c-.35,1.82.38,2.85,1.81,3.55,1.55.75,3.18,1.28,4.87,1.58,5.81,1.05,11.65,1.19,17.5.27,2.25-.35,4.46-.83,6.46-1.94,1.3-.73,2.41-1.69,2.1-3.66-8.63,6.58-23.85,6.62-32.72.2Zm86.76.25c-10.78,6.39-21.5,6.02-32.38.3.03,1.04.55,1.92,1.49,2.63,1.2.91,2.6,1.36,4.03,1.68,6.03,1.32,12.11,1.49,18.21.56,2.36-.36,4.71-.79,6.82-2.01,1.3-.75,2.17-1.74,1.83-3.16Z"/>
          <path class="cls-2" d="m392.93,172.96c2.49.02,4.22,1.7,4.19,4.08-.02,2.39-1.82,4.19-4.15,4.18-2.34-.02-4.08-1.83-4.07-4.24,0-2.38,1.66-4.03,4.02-4.01Z"/>
          <path class="cls-2" d="m393.01,209.47c-2.34,0-4.1-1.72-4.08-4.01.02-2.2,1.9-4.09,4.08-4.12,2.17-.02,4.12,1.92,4.11,4.09-.02,2.25-1.84,4.04-4.11,4.04Z"/>
          <path class="cls-2" d="m393.72,127.98c-.03,1.52-1.38,2.82-2.84,2.74-1.47-.08-2.87-1.45-2.87-2.81,0-1.45,1.57-2.97,2.98-2.89,1.38.08,2.76,1.58,2.73,2.96Z"/>
          <path class="cls-2" d="m390.97,81.73c-1.59,0-2.86-1.17-2.91-2.67-.04-1.47,1.4-2.87,2.96-2.87,1.42,0,2.63,1.24,2.66,2.71.03,1.57-1.18,2.82-2.71,2.82Z"/>
          <path class="cls-2" d="m390.86,106.3c-1.49-.04-2.82-1.4-2.79-2.85.04-1.51,1.4-2.77,2.9-2.69,1.43.08,2.76,1.54,2.7,2.97-.07,1.44-1.34,2.62-2.81,2.57Z"/>
          <path class="cls-2" d="m368.83,461.23c1.52.77,3.17,1.25,4.58,2.26,4.81,3.47,4.54,8.65-.77,11.35-3.57,1.82-7.49,2.1-11.44,1.66-2.94-.33-5.81-.86-8.03-3.09-2.55-2.57-2.62-5.88-.09-8.46,3.67-3.74,8.33-4.28,13.22-3.98.85.05,1.7.18,2.55.27,0,0-.02,0-.02,0Zm-4.65,2.57c-2.6-.08-5.15.16-7.43,1.54-1.52.92-2.7,2.13-2.51,4.13.18,1.87,1.54,2.77,3.05,3.31,4.53,1.62,9.11,1.68,13.6-.14,1.49-.6,2.85-1.53,3.03-3.36.19-1.93-1.1-3.02-2.52-3.94-2.2-1.42-4.7-1.58-7.23-1.55Z"/>
          <path class="cls-2" d="m417.66,476.7c-3.59-.06-6.71-.5-9.55-2.18-3.95-2.35-4.57-6.84-1.25-10.03,3.56-3.42,8.05-3.9,12.67-3.49,3.15.29,6.1,1.29,8.43,3.62,3.25,3.25,2.85,7.23-1,9.77-2.95,1.95-6.32,2.11-9.31,2.31Zm-.8-2.69c3.57-.03,7-.85,8.61-1.9,2.36-1.55,2.6-4.04.55-5.84-3.66-3.22-12.68-3.51-16.62-.52-2.42,1.84-2.36,4.75.22,6.36,2.41,1.51,5.15,1.79,7.24,1.9Z"/>
        </g>
      </g>
    </g>
  </g>
</svg>