<?xml version="1.0" encoding="UTF-8"?>
<svg id="Capa_2" data-name="Capa 2" xmlns="http://www.w3.org/2000/svg" xmlns:xlink="http://www.w3.org/1999/xlink" viewBox="0 0 1080 3647.06">
  <defs>
    <style>
      .cls-1 {
        clip-path: url(#clippath);
      }

      .cls-2 {
        fill: #e4e6dd;
      }

      .cls-3 {
        fill: none;
      }
    </style>
    <clipPath id="clippath">
      <rect class="cls-3" width="1080" height="3647.06"/>
    </clipPath>
  </defs>
  <g id="Capa_1-2" data-name="Capa 1">
    <g class="cls-1">
      <g>
        <g>
          <path class="cls-2" d="m235.66,2233.53h10.92c2.74,0,5.17.54,7.29,1.63,2.12,1.09,3.77,2.61,4.94,4.57,1.17,1.96,1.76,4.21,1.76,6.75s-.59,4.79-1.76,6.75c-1.17,1.96-2.82,3.48-4.94,4.57-2.12,1.09-4.55,1.63-7.29,1.63h-10.92v-25.9Zm10.69,22.68c2.1,0,3.94-.41,5.53-1.22,1.59-.81,2.82-1.95,3.68-3.42.86-1.47,1.29-3.16,1.29-5.09s-.43-3.62-1.29-5.09c-.86-1.47-2.09-2.61-3.68-3.42-1.59-.81-3.44-1.22-5.53-1.22h-6.99v19.46h6.99Z"/>
          <path class="cls-2" d="m271.07,2226.61h4.51l-6.22,4.81h-3.33l5.03-4.81Zm-4.11,6.92h3.7v25.9h-3.7v-25.9Z"/>
          <path class="cls-2" d="m295.67,2252.96h-13.76l-2.85,6.47h-3.81l11.73-25.9h3.66l11.77,25.9h-3.89l-2.85-6.47Zm-1.3-2.96l-5.59-12.69-5.59,12.69h11.17Z"/>
          <path class="cls-2" d="m308.9,2258.82c-1.81-.6-3.24-1.39-4.27-2.35l1.37-2.89c.99.89,2.25,1.61,3.79,2.16,1.54.55,3.13.83,4.75.83,2.15,0,3.75-.36,4.81-1.09,1.06-.73,1.59-1.7,1.59-2.9,0-.89-.29-1.61-.87-2.17-.58-.55-1.29-.98-2.15-1.28s-2.05-.63-3.61-1c-1.95-.47-3.52-.94-4.72-1.41-1.2-.47-2.22-1.19-3.07-2.16s-1.28-2.29-1.28-3.94c0-1.38.36-2.63,1.09-3.74.73-1.11,1.83-2,3.31-2.66s3.32-1,5.51-1c1.53,0,3.03.2,4.51.59s2.75.96,3.81,1.7l-1.22,2.96c-1.09-.69-2.25-1.21-3.48-1.57-1.23-.36-2.44-.54-3.63-.54-2.1,0-3.67.38-4.72,1.15-1.05.77-1.57,1.75-1.57,2.96,0,.89.3,1.61.89,2.17.59.55,1.33.99,2.2,1.29s2.07.63,3.57.98c1.95.47,3.51.94,4.7,1.41s2.2,1.18,3.05,2.15,1.28,2.26,1.28,3.88c0,1.36-.37,2.6-1.11,3.72-.74,1.12-1.86,2.01-3.37,2.66-1.5.65-3.35.98-5.55.98-1.95,0-3.83-.3-5.64-.91Z"/>
        </g>
        <g>
          <path class="cls-2" d="m498.06,2233.53v25.9h-3.7v-11.54h-14.87v11.54h-3.7v-25.9h3.7v11.14h14.87v-11.14h3.7Z"/>
          <path class="cls-2" d="m511.19,2258.01c-2.1-1.15-3.74-2.73-4.94-4.75s-1.79-4.28-1.79-6.77.6-4.75,1.79-6.77,2.84-3.61,4.94-4.75c2.1-1.15,4.45-1.72,7.07-1.72s4.93.57,7.03,1.72c2.1,1.15,3.74,2.73,4.92,4.74,1.18,2.01,1.78,4.27,1.78,6.79s-.59,4.78-1.78,6.79c-1.18,2.01-2.82,3.59-4.92,4.74-2.1,1.15-4.44,1.72-7.03,1.72s-4.97-.57-7.07-1.72Zm12.19-2.87c1.52-.86,2.71-2.05,3.59-3.57.88-1.52,1.31-3.21,1.31-5.09s-.44-3.57-1.31-5.09c-.88-1.52-2.07-2.71-3.59-3.57-1.52-.86-3.23-1.29-5.12-1.29s-3.62.43-5.16,1.29c-1.54.86-2.75,2.05-3.63,3.57-.88,1.52-1.31,3.21-1.31,5.09s.44,3.57,1.31,5.09c.88,1.52,2.08,2.71,3.63,3.57,1.54.86,3.26,1.29,5.16,1.29s3.61-.43,5.12-1.29Z"/>
          <path class="cls-2" d="m555.7,2259.43l-5.59-7.96c-.69.05-1.23.07-1.63.07h-6.4v7.88h-3.7v-25.9h10.1c3.35,0,5.99.8,7.92,2.41,1.92,1.6,2.89,3.81,2.89,6.62,0,2-.49,3.7-1.48,5.11-.99,1.41-2.39,2.43-4.22,3.07l6.14,8.7h-4.03Zm-1.96-12.54c1.23-1.01,1.85-2.45,1.85-4.33s-.62-3.31-1.85-4.31c-1.23-1-3.02-1.5-5.37-1.5h-6.29v11.65h6.29c2.34,0,4.13-.5,5.37-1.52Z"/>
          <path class="cls-2" d="m582.53,2252.96h-13.76l-2.85,6.47h-3.81l11.73-25.9h3.66l11.77,25.9h-3.88l-2.85-6.47Zm-1.29-2.96l-5.59-12.69-5.59,12.69h11.17Z"/>
          <path class="cls-2" d="m595.75,2258.82c-1.81-.6-3.24-1.39-4.27-2.35l1.37-2.89c.99.89,2.25,1.61,3.79,2.16,1.54.55,3.13.83,4.75.83,2.15,0,3.75-.36,4.81-1.09s1.59-1.7,1.59-2.9c0-.89-.29-1.61-.87-2.17-.58-.55-1.29-.98-2.15-1.28-.85-.3-2.05-.63-3.61-1-1.95-.47-3.52-.94-4.72-1.41-1.2-.47-2.22-1.19-3.07-2.16-.85-.97-1.28-2.29-1.28-3.94,0-1.38.36-2.63,1.09-3.74.73-1.11,1.83-2,3.31-2.66,1.48-.67,3.32-1,5.51-1,1.53,0,3.03.2,4.51.59,1.48.39,2.75.96,3.81,1.7l-1.22,2.96c-1.09-.69-2.25-1.21-3.48-1.57-1.23-.36-2.44-.54-3.63-.54-2.1,0-3.67.38-4.72,1.15-1.05.77-1.57,1.75-1.57,2.96,0,.89.3,1.61.89,2.17.59.55,1.33.99,2.2,1.29.88.31,2.07.63,3.57.98,1.95.47,3.52.94,4.7,1.41,1.18.47,2.2,1.18,3.05,2.15.85.96,1.28,2.26,1.28,3.88,0,1.36-.37,2.6-1.11,3.72-.74,1.12-1.86,2.01-3.37,2.66-1.5.65-3.36.98-5.55.98-1.95,0-3.83-.3-5.64-.91Z"/>
        </g>
        <g>
          <path class="cls-2" d="m733.08,2259.43l-.04-18.87-9.36,15.73h-1.7l-9.36-15.61v18.76h-3.55v-25.9h3.03l10.8,18.2,10.66-18.2h3.03l.04,25.9h-3.55Z"/>
          <path class="cls-2" d="m745.14,2233.53h3.7v25.9h-3.7v-25.9Z"/>
          <path class="cls-2" d="m779.63,2233.53v25.9h-3.03l-15.54-19.31v19.31h-3.7v-25.9h3.03l15.54,19.31v-19.31h3.7Z"/>
          <path class="cls-2" d="m790.8,2256.77c-1.92-1.97-2.89-4.81-2.89-8.51v-14.73h3.7v14.58c0,5.55,2.43,8.33,7.29,8.33,2.37,0,4.18-.68,5.44-2.05s1.89-3.46,1.89-6.27v-14.58h3.59v14.73c0,3.72-.96,6.57-2.89,8.53-1.92,1.96-4.61,2.94-8.07,2.94s-6.14-.99-8.07-2.96Z"/>
          <path class="cls-2" d="m822.81,2236.75h-8.88v-3.22h21.42v3.22h-8.88v22.68h-3.66v-22.68Z"/>
          <path class="cls-2" d="m844.38,2258.01c-2.1-1.15-3.74-2.73-4.94-4.75s-1.79-4.28-1.79-6.77.6-4.75,1.79-6.77,2.84-3.61,4.94-4.75c2.1-1.15,4.45-1.72,7.07-1.72s4.93.57,7.03,1.72c2.1,1.15,3.74,2.73,4.92,4.74,1.18,2.01,1.78,4.27,1.78,6.79s-.59,4.78-1.78,6.79c-1.18,2.01-2.83,3.59-4.92,4.74-2.1,1.15-4.44,1.72-7.03,1.72s-4.97-.57-7.07-1.72Zm12.19-2.87c1.52-.86,2.71-2.05,3.59-3.57.88-1.52,1.31-3.21,1.31-5.09s-.44-3.57-1.31-5.09c-.88-1.52-2.07-2.71-3.59-3.57-1.52-.86-3.22-1.29-5.12-1.29s-3.62.43-5.16,1.29c-1.54.86-2.75,2.05-3.63,3.57-.88,1.52-1.31,3.21-1.31,5.09s.44,3.57,1.31,5.09c.88,1.52,2.08,2.71,3.63,3.57,1.54.86,3.26,1.29,5.16,1.29s3.61-.43,5.12-1.29Z"/>
          <path class="cls-2" d="m873.48,2258.82c-1.81-.6-3.24-1.39-4.27-2.35l1.37-2.89c.99.89,2.25,1.61,3.79,2.16,1.54.55,3.13.83,4.75.83,2.15,0,3.75-.36,4.81-1.09s1.59-1.7,1.59-2.9c0-.89-.29-1.61-.87-2.17-.58-.55-1.29-.98-2.15-1.28-.85-.3-2.05-.63-3.61-1-1.95-.47-3.52-.94-4.72-1.41-1.2-.47-2.22-1.19-3.07-2.16-.85-.97-1.28-2.29-1.28-3.94,0-1.38.36-2.63,1.09-3.74.73-1.11,1.83-2,3.31-2.66,1.48-.67,3.32-1,5.51-1,1.53,0,3.03.2,4.51.59,1.48.39,2.75.96,3.81,1.7l-1.22,2.96c-1.09-.69-2.25-1.21-3.48-1.57-1.23-.36-2.44-.54-3.63-.54-2.1,0-3.67.38-4.72,1.15-1.05.77-1.57,1.75-1.57,2.96,0,.89.3,1.61.89,2.17.59.55,1.33.99,2.2,1.29.88.31,2.07.63,3.57.98,1.95.47,3.52.94,4.7,1.41,1.18.47,2.2,1.18,3.05,2.15.85.96,1.28,2.26,1.28,3.88,0,1.36-.37,2.6-1.11,3.72-.74,1.12-1.86,2.01-3.37,2.66-1.5.65-3.36.98-5.55.98-1.95,0-3.83-.3-5.64-.91Z"/>
        </g>
      </g>
    </g>
  </g>
</svg>