<?xml version="1.0" encoding="UTF-8"?>
<svg id="Capa_2" data-name="Capa 2" xmlns="http://www.w3.org/2000/svg" xmlns:xlink="http://www.w3.org/1999/xlink" viewBox="0 0 1079.79 1376.9">
  <defs>
    <style>
      .cls-1 {
        clip-path: url(#clippath);
      }

      .cls-2 {
        fill: #e4e6dd;
      }

      .cls-3 {
        fill: none;
      }
    </style>
    <clipPath id="clippath">
      <rect class="cls-3" width="1079.79" height="1376.9"/>
    </clipPath>
  </defs>
  <g id="Capa_1-2" data-name="Capa 1">
    <g class="cls-1">
      <g>
        <path class="cls-2" d="m425.31,283.5c-1.52-.75-2.69-1.79-3.51-3.15s-1.22-2.9-1.22-4.65c0-2.35.54-4.48,1.61-6.38,1.07-1.91,2.58-3.42,4.53-4.52s4.19-1.66,6.71-1.66c1.81,0,3.41.3,4.79.89s2.43,1.46,3.15,2.6l-2.8,2.36c-1.17-1.63-2.97-2.45-5.4-2.45-1.73,0-3.25.4-4.56,1.19-1.31.8-2.33,1.88-3.04,3.24-.72,1.36-1.07,2.86-1.07,4.49,0,1.77.57,3.17,1.7,4.21,1.13,1.04,2.74,1.55,4.83,1.55,2.41,0,4.39-.81,5.94-2.42l2.27,2.45c-.99,1.13-2.22,1.98-3.67,2.54-1.45.56-3.06.83-4.83.83-2.09,0-3.89-.37-5.41-1.12Z"/>
        <path class="cls-2" d="m444.97,283.64c-1.16-.59-2.06-1.41-2.7-2.46-.64-1.05-.95-2.28-.95-3.67,0-1.77.4-3.36,1.21-4.77.81-1.41,1.93-2.52,3.37-3.33,1.44-.81,3.07-1.21,4.88-1.21,1.55,0,2.91.29,4.09.87,1.17.58,2.08,1.39,2.71,2.45.64,1.05.95,2.28.95,3.67,0,1.77-.41,3.36-1.22,4.77s-1.94,2.53-3.39,3.34c-1.44.82-3.07,1.22-4.88,1.22-1.55,0-2.91-.29-4.07-.88Zm7.13-3.07c.83-.51,1.48-1.21,1.95-2.12.48-.9.72-1.93.72-3.09,0-1.25-.37-2.23-1.1-2.94-.74-.71-1.77-1.06-3.1-1.06-1.05,0-1.99.25-2.82.76-.83.51-1.48,1.21-1.95,2.12-.48.91-.72,1.93-.72,3.09,0,1.25.37,2.23,1.1,2.94s1.77,1.06,3.1,1.06c1.05,0,1.99-.25,2.82-.76Z"/>
        <path class="cls-2" d="m465.12,262.18h3.73l-4.42,22.14h-3.73l4.42-22.14Z"/>
        <path class="cls-2" d="m473.43,283.64c-1.16-.59-2.06-1.41-2.7-2.46-.64-1.05-.95-2.28-.95-3.67,0-1.77.4-3.36,1.21-4.77.81-1.41,1.93-2.52,3.37-3.33,1.44-.81,3.07-1.21,4.88-1.21,1.55,0,2.91.29,4.09.87,1.17.58,2.08,1.39,2.71,2.45.64,1.05.95,2.28.95,3.67,0,1.77-.41,3.36-1.22,4.77s-1.94,2.53-3.39,3.34c-1.44.82-3.07,1.22-4.88,1.22-1.55,0-2.91-.29-4.07-.88Zm7.13-3.07c.83-.51,1.48-1.21,1.95-2.12.48-.9.72-1.93.72-3.09,0-1.25-.37-2.23-1.1-2.94-.74-.71-1.77-1.06-3.1-1.06-1.05,0-1.99.25-2.82.76-.83.51-1.48,1.21-1.95,2.12-.48.91-.72,1.93-.72,3.09,0,1.25.37,2.23,1.1,2.94s1.77,1.06,3.1,1.06c1.05,0,1.99-.25,2.82-.76Z"/>
        <path class="cls-2" d="m490.73,284.03c-1.22-.33-2.17-.74-2.85-1.24l1.55-2.86c.66.48,1.48.86,2.48,1.13.99.28,2.02.42,3.07.42,1.19,0,2.09-.16,2.7-.49.61-.33.91-.8.91-1.42,0-.48-.25-.83-.76-1.04-.51-.22-1.31-.45-2.4-.69-1.13-.22-2.06-.45-2.79-.7-.73-.25-1.35-.66-1.88-1.22-.53-.57-.79-1.35-.79-2.34,0-1.65.69-2.96,2.07-3.92,1.38-.96,3.22-1.45,5.5-1.45,1.09,0,2.16.12,3.19.37s1.88.58,2.54,1l-1.37,2.86c-.66-.42-1.4-.73-2.22-.92s-1.66-.3-2.49-.3c-1.17,0-2.06.18-2.67.54-.61.36-.91.83-.91,1.4,0,.52.26.89.79,1.12.53.23,1.35.46,2.46.7,1.11.22,2.03.45,2.74.7.72.25,1.33.65,1.85,1.21.52.56.78,1.31.78,2.27,0,1.71-.7,3.03-2.09,3.97-1.39.94-3.24,1.4-5.55,1.4-1.35,0-2.64-.16-3.86-.49Z"/>
        <path class="cls-2" d="m521.26,277.45h-12.65c.06,2.61,1.59,3.91,4.59,3.91.91,0,1.77-.14,2.57-.43s1.47-.69,2.03-1.21l1.55,2.59c-.82.74-1.79,1.29-2.94,1.66-1.14.37-2.34.55-3.59.55-1.59,0-2.98-.29-4.16-.87-1.18-.58-2.09-1.4-2.73-2.46-.64-1.06-.95-2.29-.95-3.68,0-1.77.39-3.37,1.18-4.79.79-1.42,1.88-2.53,3.28-3.33,1.4-.8,2.98-1.19,4.73-1.19,2.23,0,4.01.62,5.34,1.86,1.33,1.24,2,2.95,2,5.12,0,.78-.08,1.53-.24,2.27Zm-10.49-5.25c-.89.68-1.5,1.6-1.83,2.77h9.13c.02-1.19-.34-2.12-1.09-2.79-.75-.67-1.75-1-3-1s-2.32.34-3.21,1.01Z"/>
        <path class="cls-2" d="m539.68,269.61c1.04.93,1.57,2.26,1.57,3.97,0,.48-.07,1.11-.21,1.91l-1.76,8.83h-3.73l1.73-8.74c.08-.4.12-.8.12-1.22,0-1.93-1.06-2.89-3.19-2.89-1.37,0-2.51.38-3.4,1.15s-1.5,1.91-1.82,3.45l-1.67,8.26h-3.73l3.16-15.93h3.55l-.36,1.76c1.43-1.29,3.26-1.94,5.49-1.94,1.79,0,3.21.47,4.25,1.4Z"/>
        <path class="cls-2" d="m545.89,284.03c-1.22-.33-2.17-.74-2.85-1.24l1.55-2.86c.66.48,1.48.86,2.48,1.13.99.28,2.02.42,3.07.42,1.19,0,2.09-.16,2.7-.49s.91-.8.91-1.42c0-.48-.25-.83-.76-1.04-.51-.22-1.31-.45-2.4-.69-1.13-.22-2.06-.45-2.79-.7-.73-.25-1.35-.66-1.88-1.22-.53-.57-.79-1.35-.79-2.34,0-1.65.69-2.96,2.07-3.92,1.38-.96,3.22-1.45,5.5-1.45,1.09,0,2.16.12,3.19.37,1.03.25,1.88.58,2.54,1l-1.37,2.86c-.66-.42-1.4-.73-2.22-.92s-1.66-.3-2.49-.3c-1.17,0-2.06.18-2.67.54-.61.36-.91.83-.91,1.4,0,.52.26.89.79,1.12.53.23,1.35.46,2.46.7,1.11.22,2.03.45,2.75.7.72.25,1.33.65,1.85,1.21.52.56.78,1.31.78,2.27,0,1.71-.7,3.03-2.09,3.97-1.39.94-3.24,1.4-5.55,1.4-1.35,0-2.64-.16-3.86-.49Z"/>
        <path class="cls-2" d="m576.42,277.45h-12.65c.06,2.61,1.59,3.91,4.59,3.91.92,0,1.77-.14,2.57-.43.79-.29,1.47-.69,2.03-1.21l1.55,2.59c-.82.74-1.79,1.29-2.94,1.66-1.14.37-2.34.55-3.59.55-1.59,0-2.98-.29-4.16-.87s-2.09-1.4-2.73-2.46c-.64-1.06-.95-2.29-.95-3.68,0-1.77.39-3.37,1.18-4.79.79-1.42,1.88-2.53,3.28-3.33,1.4-.8,2.98-1.19,4.73-1.19,2.23,0,4.01.62,5.34,1.86,1.33,1.24,2,2.95,2,5.12,0,.78-.08,1.53-.24,2.27Zm-10.49-5.25c-.88.68-1.5,1.6-1.83,2.77h9.13c.02-1.19-.34-2.12-1.09-2.79-.75-.67-1.75-1-3-1s-2.32.34-3.21,1.01Z"/>
        <path class="cls-2" d="m580.32,284.03c-1.22-.33-2.17-.74-2.85-1.24l1.55-2.86c.66.48,1.48.86,2.48,1.13.99.28,2.02.42,3.07.42,1.19,0,2.09-.16,2.7-.49s.91-.8.91-1.42c0-.48-.25-.83-.76-1.04-.51-.22-1.31-.45-2.4-.69-1.13-.22-2.06-.45-2.79-.7-.73-.25-1.35-.66-1.88-1.22-.53-.57-.79-1.35-.79-2.34,0-1.65.69-2.96,2.07-3.92,1.38-.96,3.22-1.45,5.5-1.45,1.09,0,2.16.12,3.19.37,1.03.25,1.88.58,2.54,1l-1.37,2.86c-.66-.42-1.4-.73-2.22-.92s-1.66-.3-2.49-.3c-1.17,0-2.06.18-2.67.54-.61.36-.91.83-.91,1.4,0,.52.26.89.79,1.12.53.23,1.35.46,2.46.7,1.11.22,2.03.45,2.75.7.72.25,1.33.65,1.85,1.21.52.56.78,1.31.78,2.27,0,1.71-.7,3.03-2.09,3.97-1.39.94-3.24,1.4-5.55,1.4-1.35,0-2.64-.16-3.86-.49Z"/>
        <path class="cls-2" d="m619.44,266.03l-6.32,6.12c1.53.28,2.71.88,3.55,1.8.84.92,1.25,2.09,1.25,3.51s-.39,2.6-1.16,3.68-1.86,1.93-3.27,2.55c-1.4.62-3.01.92-4.82.92-1.55,0-2.98-.22-4.3-.66-1.31-.44-2.38-1.05-3.19-1.85l1.94-2.95c.64.64,1.46,1.14,2.48,1.52,1.01.38,2.12.57,3.31.57,1.61,0,2.86-.31,3.76-.94.89-.63,1.34-1.51,1.34-2.64,0-1.79-1.34-2.69-4.03-2.69h-1.88l.54-2.65,5.82-5.64h-9.4l.66-3.25h14.2l-.48,2.6Z"/>
        <path class="cls-2" d="m620.47,283.87c-.45-.44-.67-.99-.67-1.67,0-.76.25-1.38.75-1.88s1.11-.75,1.85-.75c.66,0,1.2.22,1.64.66s.66.99.66,1.67c0,.78-.25,1.41-.76,1.89-.51.49-1.11.73-1.8.73-.66,0-1.21-.22-1.66-.66Zm2.27-11.37c-.45-.44-.67-.99-.67-1.67,0-.76.25-1.38.75-1.88s1.11-.75,1.85-.75c.66,0,1.2.22,1.64.66.44.44.66,1,.66,1.67,0,.78-.25,1.41-.76,1.89-.51.49-1.11.73-1.8.73-.66,0-1.21-.22-1.66-.66Z"/>
        <path class="cls-2" d="m638.44,263.43l-4.18,20.88h-3.88l3.52-17.63h-4.45l.66-3.25h8.32Z"/>
        <path class="cls-2" d="m658.28,279.57h-3.7l-.96,4.74h-3.79l.98-4.74h-11.43l.51-2.69,12.8-13.45h4.3l-12.08,12.86h6.68l.87-4.21h3.61l-.83,4.21h3.7l-.66,3.28Z"/>
      </g>
      <g>
        <path class="cls-2" d="m209.53,180.58c.23.28.34.61.34.99,0,.46-.15.84-.46,1.15-.31.31-.68.46-1.11.46-.46,0-.84-.15-1.15-.46-.31-.31-.46-.69-.46-1.15s.11-1.04.34-1.76l1.49-5.2h1.34l-1.22,5.39c.36.1.65.29.88.57Zm5.85,0c.23.28.34.61.34.99,0,.46-.15.84-.46,1.15-.31.31-.68.46-1.11.46-.46,0-.84-.15-1.15-.46s-.46-.69-.46-1.15.11-1.04.34-1.76l1.49-5.2h1.34l-1.22,5.39c.36.1.65.29.88.57Z"/>
        <path class="cls-2" d="m231.93,193.77v9.21h-1.95v-9.21l-10.78-17.55h2.14l9.67,15.75,9.67-15.75h2.03l-10.78,17.55Z"/>
        <path class="cls-2" d="m258,202.41c-1.45-.48-2.59-1.1-3.4-1.83l.88-1.53c.82.69,1.87,1.26,3.15,1.72,1.29.46,2.63.69,4.03.69,2.01,0,3.5-.33,4.45-.99.96-.66,1.43-1.58,1.43-2.75,0-.84-.26-1.5-.78-1.99-.52-.48-1.17-.84-1.93-1.07s-1.82-.47-3.17-.73c-1.58-.28-2.85-.59-3.82-.92-.97-.33-1.8-.87-2.48-1.61s-1.03-1.76-1.03-3.06c0-1.58.66-2.89,1.97-3.92,1.31-1.03,3.18-1.55,5.6-1.55,1.27,0,2.54.18,3.78.54,1.25.36,2.27.83,3.06,1.42l-.88,1.53c-.82-.59-1.75-1.03-2.79-1.34-1.05-.31-2.12-.46-3.21-.46-1.86,0-3.26.34-4.21,1.03-.94.69-1.41,1.59-1.41,2.71,0,.89.27,1.59.8,2.08.54.5,1.19.87,1.97,1.11.78.24,1.87.5,3.27.78,1.55.28,2.81.58,3.77.9.96.32,1.76.83,2.43,1.55.66.71.99,1.69.99,2.94,0,1.66-.69,2.98-2.06,3.98-1.38.99-3.31,1.49-5.81,1.49-1.61,0-3.13-.24-4.59-.73Z"/>
        <path class="cls-2" d="m278.89,201.84c-1.52-.87-2.71-2.07-3.57-3.61-.87-1.54-1.3-3.28-1.3-5.22s.43-3.68,1.3-5.22c.87-1.54,2.06-2.75,3.57-3.61,1.52-.87,3.22-1.3,5.1-1.3s3.59.43,5.1,1.3c1.52.87,2.71,2.07,3.57,3.61.87,1.54,1.3,3.28,1.3,5.22s-.43,3.68-1.3,5.22c-.87,1.54-2.06,2.75-3.57,3.61-1.52.87-3.22,1.3-5.1,1.3s-3.59-.43-5.1-1.3Zm9.21-1.49c1.21-.71,2.17-1.71,2.87-2.98.7-1.27,1.05-2.73,1.05-4.36s-.35-3.08-1.05-4.36c-.7-1.27-1.66-2.27-2.87-2.98-1.21-.71-2.58-1.07-4.11-1.07s-2.9.36-4.11,1.07c-1.21.71-2.17,1.71-2.87,2.98-.7,1.28-1.05,2.73-1.05,4.36s.35,3.08,1.05,4.36c.7,1.27,1.66,2.27,2.87,2.98,1.21.71,2.58,1.07,4.11,1.07s2.9-.36,4.11-1.07Z"/>
        <path class="cls-2" d="m315.34,184.16c1.5.85,2.68,2.05,3.54,3.59.85,1.54,1.28,3.29,1.28,5.26s-.43,3.71-1.28,5.24c-.85,1.53-2.03,2.73-3.54,3.59-1.5.87-3.19,1.3-5.05,1.3s-3.4-.43-4.84-1.28c-1.44-.85-2.56-2.04-3.34-3.57v4.7h-1.83v-28.37h1.91v12.96c.79-1.48,1.9-2.63,3.33-3.46,1.43-.83,3.02-1.24,4.78-1.24,1.86,0,3.54.43,5.05,1.28Zm-1.03,16.19c1.22-.71,2.19-1.71,2.89-2.98.7-1.27,1.05-2.73,1.05-4.36s-.35-3.08-1.05-4.36c-.7-1.27-1.66-2.27-2.89-2.98-1.22-.71-2.6-1.07-4.13-1.07s-2.9.36-4.11,1.07c-1.21.71-2.17,1.71-2.87,2.98-.7,1.28-1.05,2.73-1.05,4.36s.35,3.08,1.05,4.36c.7,1.27,1.66,2.27,2.87,2.98,1.21.71,2.58,1.07,4.11,1.07s2.91-.36,4.13-1.07Z"/>
        <path class="cls-2" d="m331.17,184.04c1.3-.78,2.88-1.17,4.74-1.17v1.87l-.46-.04c-2.22,0-3.95.7-5.2,2.08-1.25,1.39-1.87,3.32-1.87,5.79v10.4h-1.91v-19.96h1.83v4.36c.61-1.45,1.57-2.57,2.87-3.35Z"/>
        <path class="cls-2" d="m358.23,193.46h-17.16c.05,1.55.45,2.94,1.19,4.15.74,1.21,1.74,2.15,3,2.81,1.26.66,2.68.99,4.26.99,1.3,0,2.5-.24,3.61-.71,1.11-.47,2.03-1.17,2.77-2.08l1.11,1.26c-.87,1.05-1.96,1.85-3.27,2.41-1.31.56-2.73.84-4.26.84-1.99,0-3.76-.43-5.31-1.3-1.55-.87-2.77-2.06-3.65-3.59-.88-1.53-1.32-3.27-1.32-5.24s.41-3.68,1.24-5.22c.83-1.54,1.97-2.75,3.42-3.61,1.45-.87,3.08-1.3,4.89-1.3s3.43.43,4.87,1.28,2.57,2.04,3.4,3.57,1.24,3.26,1.24,5.2l-.04.54Zm-13.27-7.97c-1.12.62-2.02,1.5-2.69,2.64-.68,1.13-1.06,2.42-1.17,3.84h15.29c-.08-1.43-.46-2.7-1.15-3.82-.69-1.12-1.59-2-2.71-2.64-1.12-.64-2.38-.96-3.78-.96s-2.66.31-3.78.94Z"/>
        <path class="cls-2" d="m384.69,201.72c-.48.46-1.09.81-1.82,1.05-.73.24-1.49.36-2.27.36-1.73,0-3.07-.48-4.01-1.43-.94-.96-1.41-2.29-1.41-4v-13.04h-3.67v-1.64h3.67v-4.36h1.91v4.36h6.35v1.64h-6.35v12.84c0,1.3.31,2.29.94,2.96.62.68,1.55,1.01,2.77,1.01s2.28-.37,3.1-1.11l.8,1.34Z"/>
        <path class="cls-2" d="m392.35,201.84c-1.52-.87-2.71-2.07-3.57-3.61-.87-1.54-1.3-3.28-1.3-5.22s.43-3.68,1.3-5.22c.87-1.54,2.06-2.75,3.57-3.61,1.52-.87,3.22-1.3,5.1-1.3s3.59.43,5.1,1.3c1.52.87,2.71,2.07,3.57,3.61.87,1.54,1.3,3.28,1.3,5.22s-.43,3.68-1.3,5.22c-.87,1.54-2.06,2.75-3.57,3.61-1.52.87-3.22,1.3-5.1,1.3s-3.59-.43-5.1-1.3Zm9.21-1.49c1.21-.71,2.17-1.71,2.87-2.98.7-1.27,1.05-2.73,1.05-4.36s-.35-3.08-1.05-4.36c-.7-1.27-1.66-2.27-2.87-2.98-1.21-.71-2.58-1.07-4.11-1.07s-2.9.36-4.11,1.07c-1.21.71-2.17,1.71-2.87,2.98-.7,1.28-1.05,2.73-1.05,4.36s.35,3.08,1.05,4.36c.7,1.27,1.66,2.27,2.87,2.98,1.21.71,2.58,1.07,4.11,1.07s2.9-.36,4.11-1.07Z"/>
        <path class="cls-2" d="m431.48,174.62v28.37h-1.87v-4.7c-.79,1.55-1.9,2.75-3.33,3.59-1.43.84-3.05,1.26-4.85,1.26s-3.54-.43-5.05-1.3c-1.5-.87-2.68-2.06-3.54-3.59-.85-1.53-1.28-3.27-1.28-5.24s.43-3.71,1.28-5.26c.85-1.54,2.03-2.74,3.54-3.59,1.5-.85,3.19-1.28,5.05-1.28s3.38.42,4.8,1.26,2.53,2.01,3.35,3.52v-13.04h1.91Zm-5.83,25.73c1.21-.71,2.17-1.71,2.87-2.98.7-1.27,1.05-2.73,1.05-4.36s-.35-3.08-1.05-4.36c-.7-1.27-1.66-2.27-2.87-2.98-1.21-.71-2.58-1.07-4.11-1.07s-2.9.36-4.11,1.07c-1.21.71-2.17,1.71-2.87,2.98-.7,1.28-1.05,2.73-1.05,4.36s.35,3.08,1.05,4.36c.7,1.27,1.66,2.27,2.87,2.98,1.21.71,2.58,1.07,4.11,1.07s2.9-.36,4.11-1.07Z"/>
        <path class="cls-2" d="m452.35,184.77c1.32,1.26,1.99,3.12,1.99,5.56v12.65h-1.83v-3.56c-.64,1.17-1.57,2.08-2.79,2.73-1.22.65-2.69.98-4.4.98-2.22,0-3.97-.52-5.26-1.57-1.29-1.04-1.93-2.42-1.93-4.13s.59-3,1.78-4.03,3.08-1.55,5.68-1.55h6.84v-1.61c0-1.86-.5-3.27-1.51-4.24-1.01-.97-2.48-1.45-4.42-1.45-1.33,0-2.59.23-3.8.69-1.21.46-2.24,1.07-3.08,1.83l-.96-1.38c.99-.89,2.19-1.59,3.59-2.08,1.4-.5,2.87-.75,4.4-.75,2.47,0,4.37.63,5.7,1.89Zm-2.54,15.65c1.16-.76,2.03-1.87,2.62-3.33v-3.75h-6.8c-1.96,0-3.38.36-4.26,1.07-.88.71-1.32,1.7-1.32,2.94s.48,2.33,1.45,3.08c.97.75,2.33,1.13,4.09,1.13,1.66,0,3.06-.38,4.22-1.15Z"/>
        <path class="cls-2" d="m463.05,202.41c-1.45-.48-2.59-1.1-3.4-1.83l.88-1.53c.82.69,1.87,1.26,3.15,1.72,1.29.46,2.63.69,4.03.69,2.01,0,3.5-.33,4.45-.99.96-.66,1.43-1.58,1.43-2.75,0-.84-.26-1.5-.78-1.99-.52-.48-1.17-.84-1.93-1.07s-1.82-.47-3.17-.73c-1.58-.28-2.85-.59-3.82-.92-.97-.33-1.8-.87-2.48-1.61s-1.03-1.76-1.03-3.06c0-1.58.66-2.89,1.97-3.92,1.31-1.03,3.18-1.55,5.6-1.55,1.27,0,2.54.18,3.78.54,1.25.36,2.27.83,3.06,1.42l-.88,1.53c-.82-.59-1.75-1.03-2.79-1.34-1.05-.31-2.12-.46-3.21-.46-1.86,0-3.26.34-4.21,1.03-.94.69-1.41,1.59-1.41,2.71,0,.89.27,1.59.8,2.08.54.5,1.19.87,1.97,1.11.78.24,1.87.5,3.27.78,1.55.28,2.81.58,3.77.9.96.32,1.76.83,2.43,1.55.66.71.99,1.69.99,2.94,0,1.66-.69,2.98-2.06,3.98-1.38.99-3.31,1.49-5.81,1.49-1.61,0-3.13-.24-4.59-.73Z"/>
        <path class="cls-2" d="m508.31,193.46h-17.16c.05,1.55.45,2.94,1.19,4.15.74,1.21,1.74,2.15,3,2.81,1.26.66,2.68.99,4.26.99,1.3,0,2.5-.24,3.61-.71,1.11-.47,2.03-1.17,2.77-2.08l1.11,1.26c-.87,1.05-1.96,1.85-3.27,2.41-1.31.56-2.73.84-4.26.84-1.99,0-3.76-.43-5.31-1.3-1.55-.87-2.77-2.06-3.65-3.59-.88-1.53-1.32-3.27-1.32-5.24s.41-3.68,1.24-5.22c.83-1.54,1.97-2.75,3.42-3.61,1.45-.87,3.08-1.3,4.89-1.3s3.43.43,4.87,1.28,2.57,2.04,3.4,3.57,1.24,3.26,1.24,5.2l-.04.54Zm-13.27-7.97c-1.12.62-2.02,1.5-2.69,2.64-.68,1.13-1.06,2.42-1.17,3.84h15.29c-.08-1.43-.46-2.7-1.15-3.82-.69-1.12-1.59-2-2.71-2.64-1.12-.64-2.38-.96-3.78-.96s-2.66.31-3.78.94Z"/>
        <path class="cls-2" d="m515.12,202.41c-1.45-.48-2.59-1.1-3.4-1.83l.88-1.53c.82.69,1.87,1.26,3.15,1.72,1.29.46,2.63.69,4.03.69,2.01,0,3.5-.33,4.45-.99.96-.66,1.43-1.58,1.43-2.75,0-.84-.26-1.5-.78-1.99-.52-.48-1.17-.84-1.93-1.07s-1.82-.47-3.17-.73c-1.58-.28-2.85-.59-3.82-.92-.97-.33-1.8-.87-2.48-1.61s-1.03-1.76-1.03-3.06c0-1.58.66-2.89,1.97-3.92,1.31-1.03,3.18-1.55,5.6-1.55,1.27,0,2.54.18,3.78.54,1.25.36,2.27.83,3.06,1.42l-.88,1.53c-.82-.59-1.75-1.03-2.79-1.34-1.05-.31-2.12-.46-3.21-.46-1.86,0-3.26.34-4.21,1.03-.94.69-1.41,1.59-1.41,2.71,0,.89.27,1.59.8,2.08.54.5,1.19.87,1.97,1.11.78.24,1.87.5,3.27.78,1.55.28,2.81.58,3.77.9.96.32,1.76.83,2.43,1.55.66.71.99,1.69.99,2.94,0,1.66-.69,2.98-2.06,3.98-1.38.99-3.31,1.49-5.81,1.49-1.61,0-3.13-.24-4.59-.73Z"/>
        <path class="cls-2" d="m543.22,201.72c-.48.46-1.09.81-1.82,1.05-.73.24-1.48.36-2.27.36-1.73,0-3.07-.48-4.01-1.43-.94-.96-1.41-2.29-1.41-4v-13.04h-3.67v-1.64h3.67v-4.36h1.91v4.36h6.35v1.64h-6.35v12.84c0,1.3.31,2.29.94,2.96.62.68,1.55,1.01,2.77,1.01s2.28-.37,3.1-1.11l.8,1.34Z"/>
        <path class="cls-2" d="m561.34,184.77c1.32,1.26,1.99,3.12,1.99,5.56v12.65h-1.83v-3.56c-.64,1.17-1.57,2.08-2.79,2.73-1.22.65-2.69.98-4.4.98-2.22,0-3.97-.52-5.26-1.57s-1.93-2.42-1.93-4.13.59-3,1.78-4.03c1.18-1.03,3.08-1.55,5.68-1.55h6.84v-1.61c0-1.86-.5-3.27-1.51-4.24-1.01-.97-2.48-1.45-4.42-1.45-1.33,0-2.59.23-3.8.69-1.21.46-2.24,1.07-3.08,1.83l-.96-1.38c.99-.89,2.19-1.59,3.59-2.08s2.87-.75,4.4-.75c2.47,0,4.37.63,5.7,1.89Zm-2.54,15.65c1.16-.76,2.03-1.87,2.62-3.33v-3.75h-6.8c-1.96,0-3.38.36-4.26,1.07-.88.71-1.32,1.7-1.32,2.94s.48,2.33,1.45,3.08,2.33,1.13,4.09,1.13c1.66,0,3.06-.38,4.22-1.15Z"/>
        <path class="cls-2" d="m572.04,202.41c-1.45-.48-2.59-1.1-3.4-1.83l.88-1.53c.81.69,1.87,1.26,3.15,1.72,1.29.46,2.63.69,4.03.69,2.01,0,3.5-.33,4.45-.99.96-.66,1.43-1.58,1.43-2.75,0-.84-.26-1.5-.78-1.99-.52-.48-1.17-.84-1.93-1.07s-1.82-.47-3.17-.73c-1.58-.28-2.85-.59-3.82-.92s-1.8-.87-2.48-1.61-1.03-1.76-1.03-3.06c0-1.58.66-2.89,1.97-3.92s3.18-1.55,5.6-1.55c1.27,0,2.54.18,3.78.54,1.25.36,2.27.83,3.06,1.42l-.88,1.53c-.82-.59-1.75-1.03-2.79-1.34-1.04-.31-2.12-.46-3.21-.46-1.86,0-3.26.34-4.21,1.03-.94.69-1.42,1.59-1.42,2.71,0,.89.27,1.59.8,2.08.54.5,1.19.87,1.97,1.11s1.87.5,3.27.78c1.55.28,2.81.58,3.77.9.96.32,1.76.83,2.43,1.55.66.71.99,1.69.99,2.94,0,1.66-.69,2.98-2.06,3.98s-3.31,1.49-5.81,1.49c-1.61,0-3.13-.24-4.59-.73Z"/>
        <path class="cls-2" d="m603.16,201.84c-1.53-.87-2.73-2.07-3.59-3.61-.87-1.54-1.3-3.28-1.3-5.22s.43-3.71,1.3-5.26c.87-1.54,2.06-2.74,3.59-3.59s3.26-1.28,5.2-1.28c1.61,0,3.06.31,4.38.94,1.31.62,2.38,1.54,3.19,2.73l-1.42,1.03c-.71-.99-1.6-1.74-2.66-2.24s-2.22-.75-3.5-.75c-1.55,0-2.95.35-4.19,1.05-1.24.7-2.2,1.69-2.91,2.96-.7,1.27-1.05,2.74-1.05,4.4s.35,3.12,1.05,4.4,1.67,2.26,2.91,2.96,2.63,1.05,4.19,1.05c1.27,0,2.44-.25,3.5-.75s1.94-1.24,2.66-2.24l1.42,1.03c-.82,1.2-1.88,2.11-3.19,2.73-1.31.62-2.77.94-4.38.94-1.94,0-3.67-.43-5.2-1.3Z"/>
        <path class="cls-2" d="m624.39,201.84c-1.52-.87-2.71-2.07-3.57-3.61-.87-1.54-1.3-3.28-1.3-5.22s.43-3.68,1.3-5.22,2.06-2.75,3.57-3.61c1.52-.87,3.22-1.3,5.1-1.3s3.59.43,5.1,1.3c1.52.87,2.71,2.07,3.57,3.61s1.3,3.28,1.3,5.22-.43,3.68-1.3,5.22c-.87,1.54-2.06,2.75-3.57,3.61s-3.22,1.3-5.1,1.3-3.59-.43-5.1-1.3Zm9.21-1.49c1.21-.71,2.17-1.71,2.87-2.98s1.05-2.73,1.05-4.36-.35-3.08-1.05-4.36c-.7-1.27-1.66-2.27-2.87-2.98-1.21-.71-2.58-1.07-4.11-1.07s-2.9.36-4.11,1.07c-1.21.71-2.17,1.71-2.87,2.98-.7,1.28-1.05,2.73-1.05,4.36s.35,3.08,1.05,4.36,1.66,2.27,2.87,2.98c1.21.71,2.58,1.07,4.11,1.07s2.9-.36,4.11-1.07Z"/>
        <path class="cls-2" d="m646.24,202.41c-1.45-.48-2.59-1.1-3.4-1.83l.88-1.53c.81.69,1.87,1.26,3.15,1.72,1.29.46,2.63.69,4.03.69,2.01,0,3.5-.33,4.45-.99.96-.66,1.43-1.58,1.43-2.75,0-.84-.26-1.5-.78-1.99-.52-.48-1.17-.84-1.93-1.07s-1.82-.47-3.17-.73c-1.58-.28-2.85-.59-3.82-.92s-1.8-.87-2.48-1.61-1.03-1.76-1.03-3.06c0-1.58.66-2.89,1.97-3.92s3.18-1.55,5.6-1.55c1.27,0,2.54.18,3.78.54,1.25.36,2.27.83,3.06,1.42l-.88,1.53c-.82-.59-1.75-1.03-2.79-1.34-1.04-.31-2.12-.46-3.21-.46-1.86,0-3.26.34-4.21,1.03-.94.69-1.42,1.59-1.42,2.71,0,.89.27,1.59.8,2.08.54.5,1.19.87,1.97,1.11s1.87.5,3.27.78c1.55.28,2.81.58,3.77.9.96.32,1.76.83,2.43,1.55.66.71.99,1.69.99,2.94,0,1.66-.69,2.98-2.06,3.98s-3.31,1.49-5.81,1.49c-1.61,0-3.13-.24-4.59-.73Z"/>
        <path class="cls-2" d="m676.86,184.77c1.32,1.26,1.99,3.12,1.99,5.56v12.65h-1.83v-3.56c-.64,1.17-1.57,2.08-2.79,2.73-1.22.65-2.69.98-4.4.98-2.22,0-3.97-.52-5.26-1.57s-1.93-2.42-1.93-4.13.59-3,1.78-4.03c1.18-1.03,3.08-1.55,5.68-1.55h6.84v-1.61c0-1.86-.5-3.27-1.51-4.24-1.01-.97-2.48-1.45-4.42-1.45-1.33,0-2.59.23-3.8.69-1.21.46-2.24,1.07-3.08,1.83l-.96-1.38c.99-.89,2.19-1.59,3.59-2.08s2.87-.75,4.4-.75c2.47,0,4.37.63,5.7,1.89Zm-2.54,15.65c1.16-.76,2.03-1.87,2.62-3.33v-3.75h-6.8c-1.96,0-3.38.36-4.26,1.07-.88.71-1.32,1.7-1.32,2.94s.48,2.33,1.45,3.08,2.33,1.13,4.09,1.13c1.66,0,3.06-.38,4.22-1.15Z"/>
        <path class="cls-2" d="m687.56,202.41c-1.45-.48-2.59-1.1-3.4-1.83l.88-1.53c.81.69,1.87,1.26,3.15,1.72,1.29.46,2.63.69,4.03.69,2.01,0,3.5-.33,4.45-.99.96-.66,1.43-1.58,1.43-2.75,0-.84-.26-1.5-.78-1.99-.52-.48-1.17-.84-1.93-1.07s-1.82-.47-3.17-.73c-1.58-.28-2.85-.59-3.82-.92s-1.8-.87-2.48-1.61-1.03-1.76-1.03-3.06c0-1.58.66-2.89,1.97-3.92s3.18-1.55,5.6-1.55c1.27,0,2.54.18,3.78.54,1.25.36,2.27.83,3.06,1.42l-.88,1.53c-.82-.59-1.75-1.03-2.79-1.34-1.04-.31-2.12-.46-3.21-.46-1.86,0-3.26.34-4.21,1.03-.94.69-1.42,1.59-1.42,2.71,0,.89.27,1.59.8,2.08.54.5,1.19.87,1.97,1.11s1.87.5,3.27.78c1.55.28,2.81.58,3.77.9.96.32,1.76.83,2.43,1.55.66.71.99,1.69.99,2.94,0,1.66-.69,2.98-2.06,3.98s-3.31,1.49-5.81,1.49c-1.61,0-3.13-.24-4.59-.73Z"/>
        <path class="cls-2" d="m706.68,200.37c.31.32.46.69.46,1.13,0,.25-.03.52-.1.8-.06.28-.15.6-.25.96l-1.49,5.2h-1.38l1.26-5.39c-.38-.1-.69-.29-.92-.55s-.34-.61-.34-1.01c0-.46.15-.84.46-1.15s.69-.46,1.15-.46.84.16,1.15.48Z"/>
        <path class="cls-2" d="m740.01,183.03l-9.02,19.96h-1.95l-8.98-19.96h2.03l7.95,17.85,8.03-17.85h1.95Z"/>
        <path class="cls-2" d="m748.65,175.27h2.75l-6,4.51h-2.06l5.31-4.51Zm-4.09,7.76h1.91v19.96h-1.91v-19.96Z"/>
        <path class="cls-2" d="m755.38,202.41c-1.45-.48-2.59-1.1-3.4-1.83l.88-1.53c.81.69,1.87,1.26,3.15,1.72,1.29.46,2.63.69,4.03.69,2.01,0,3.5-.33,4.45-.99.96-.66,1.43-1.58,1.43-2.75,0-.84-.26-1.5-.78-1.99-.52-.48-1.17-.84-1.93-1.07s-1.82-.47-3.17-.73c-1.58-.28-2.85-.59-3.82-.92s-1.8-.87-2.48-1.61-1.03-1.76-1.03-3.06c0-1.58.66-2.89,1.97-3.92s3.18-1.55,5.6-1.55c1.27,0,2.54.18,3.78.54,1.25.36,2.27.83,3.06,1.42l-.88,1.53c-.82-.59-1.75-1.03-2.79-1.34-1.04-.31-2.12-.46-3.21-.46-1.86,0-3.26.34-4.21,1.03-.94.69-1.42,1.59-1.42,2.71,0,.89.27,1.59.8,2.08.54.5,1.19.87,1.97,1.11s1.87.5,3.27.78c1.55.28,2.81.58,3.77.9.96.32,1.76.83,2.43,1.55.66.71.99,1.69.99,2.94,0,1.66-.69,2.98-2.06,3.98s-3.31,1.49-5.81,1.49c-1.61,0-3.13-.24-4.59-.73Z"/>
        <path class="cls-2" d="m783.48,201.72c-.48.46-1.09.81-1.82,1.05-.73.24-1.49.36-2.27.36-1.73,0-3.07-.48-4.01-1.43-.94-.96-1.41-2.29-1.41-4v-13.04h-3.67v-1.64h3.67v-4.36h1.91v4.36h6.35v1.64h-6.35v12.84c0,1.3.31,2.29.94,2.96.62.68,1.55,1.01,2.77,1.01s2.28-.37,3.1-1.11l.8,1.34Z"/>
        <path class="cls-2" d="m801.6,184.77c1.32,1.26,1.99,3.12,1.99,5.56v12.65h-1.83v-3.56c-.64,1.17-1.57,2.08-2.79,2.73-1.22.65-2.69.98-4.4.98-2.22,0-3.97-.52-5.26-1.57s-1.93-2.42-1.93-4.13.59-3,1.78-4.03c1.18-1.03,3.08-1.55,5.68-1.55h6.84v-1.61c0-1.86-.5-3.27-1.51-4.24-1.01-.97-2.48-1.45-4.42-1.45-1.33,0-2.59.23-3.8.69-1.21.46-2.24,1.07-3.08,1.83l-.96-1.38c.99-.89,2.19-1.59,3.59-2.08s2.87-.75,4.4-.75c2.47,0,4.37.63,5.7,1.89Zm-2.54,15.65c1.16-.76,2.03-1.87,2.62-3.33v-3.75h-6.8c-1.96,0-3.38.36-4.26,1.07-.88.71-1.32,1.7-1.32,2.94s.48,2.33,1.45,3.08,2.33,1.13,4.09,1.13c1.66,0,3.06-.38,4.22-1.15Z"/>
        <path class="cls-2" d="m827.52,185.05c1.45,1.45,2.18,3.54,2.18,6.27v11.66h-1.91v-11.51c0-2.24-.57-3.95-1.7-5.12s-2.72-1.76-4.76-1.76c-2.35,0-4.19.7-5.54,2.1s-2.03,3.29-2.03,5.66v10.63h-1.91v-19.96h1.83v4.32c.69-1.4,1.71-2.5,3.08-3.29,1.36-.79,2.97-1.19,4.84-1.19,2.5,0,4.47.73,5.92,2.18Z"/>
        <path class="cls-2" d="m838.41,202.41c-1.45-.48-2.59-1.1-3.4-1.83l.88-1.53c.81.69,1.87,1.26,3.15,1.72,1.29.46,2.63.69,4.03.69,2.01,0,3.5-.33,4.45-.99.96-.66,1.43-1.58,1.43-2.75,0-.84-.26-1.5-.78-1.99-.52-.48-1.17-.84-1.93-1.07s-1.82-.47-3.17-.73c-1.58-.28-2.85-.59-3.82-.92s-1.8-.87-2.48-1.61-1.03-1.76-1.03-3.06c0-1.58.66-2.89,1.97-3.92s3.18-1.55,5.6-1.55c1.27,0,2.54.18,3.78.54,1.25.36,2.27.83,3.06,1.42l-.88,1.53c-.82-.59-1.75-1.03-2.79-1.34-1.04-.31-2.12-.46-3.21-.46-1.86,0-3.26.34-4.21,1.03-.94.69-1.42,1.59-1.42,2.71,0,.89.27,1.59.8,2.08.54.5,1.19.87,1.97,1.11s1.87.5,3.27.78c1.55.28,2.81.58,3.77.9.96.32,1.76.83,2.43,1.55.66.71.99,1.69.99,2.94,0,1.66-.69,2.98-2.06,3.98s-3.31,1.49-5.81,1.49c-1.61,0-3.13-.24-4.59-.73Z"/>
        <path class="cls-2" d="m873.47,193.46h-17.17c.05,1.55.45,2.94,1.19,4.15.74,1.21,1.74,2.15,3,2.81,1.26.66,2.68.99,4.26.99,1.3,0,2.5-.24,3.61-.71s2.03-1.17,2.77-2.08l1.11,1.26c-.87,1.05-1.96,1.85-3.27,2.41-1.31.56-2.73.84-4.26.84-1.99,0-3.76-.43-5.31-1.3s-2.77-2.06-3.65-3.59c-.88-1.53-1.32-3.27-1.32-5.24s.41-3.68,1.24-5.22,1.97-2.75,3.42-3.61c1.45-.87,3.08-1.3,4.89-1.3s3.43.43,4.87,1.28c1.44.85,2.57,2.04,3.4,3.57.83,1.53,1.24,3.26,1.24,5.2l-.04.54Zm-13.27-7.97c-1.12.62-2.02,1.5-2.7,2.64-.67,1.13-1.06,2.42-1.17,3.84h15.29c-.08-1.43-.46-2.7-1.15-3.82-.69-1.12-1.59-2-2.71-2.64-1.12-.64-2.38-.96-3.78-.96s-2.66.31-3.79.94Z"/>
        <path class="cls-2" d="m218.65,212.5v28.37h-1.87v-4.7c-.79,1.55-1.9,2.75-3.33,3.59-1.43.84-3.05,1.26-4.85,1.26s-3.54-.43-5.05-1.3c-1.5-.87-2.68-2.06-3.54-3.59-.85-1.53-1.28-3.27-1.28-5.24s.43-3.71,1.28-5.26c.85-1.54,2.03-2.74,3.54-3.59,1.5-.85,3.19-1.28,5.05-1.28s3.38.42,4.8,1.26,2.53,2.01,3.35,3.52v-13.04h1.91Zm-5.83,25.73c1.21-.71,2.17-1.71,2.87-2.98.7-1.27,1.05-2.73,1.05-4.36s-.35-3.08-1.05-4.36c-.7-1.27-1.66-2.27-2.87-2.98-1.21-.71-2.58-1.07-4.11-1.07s-2.9.36-4.11,1.07c-1.21.71-2.17,1.71-2.87,2.98-.7,1.28-1.05,2.73-1.05,4.36s.35,3.08,1.05,4.36c.7,1.27,1.66,2.27,2.87,2.98,1.21.71,2.58,1.07,4.11,1.07s2.9-.36,4.11-1.07Z"/>
        <path class="cls-2" d="m243.95,231.35h-17.16c.05,1.55.45,2.94,1.19,4.15.74,1.21,1.74,2.15,3,2.81,1.26.66,2.68.99,4.26.99,1.3,0,2.5-.24,3.61-.71,1.11-.47,2.03-1.17,2.77-2.08l1.11,1.26c-.87,1.05-1.96,1.85-3.27,2.41-1.31.56-2.73.84-4.26.84-1.99,0-3.76-.43-5.31-1.3-1.55-.87-2.77-2.06-3.65-3.59-.88-1.53-1.32-3.27-1.32-5.24s.41-3.68,1.24-5.22c.83-1.54,1.97-2.75,3.42-3.61,1.45-.87,3.08-1.3,4.89-1.3s3.43.43,4.87,1.28,2.57,2.04,3.4,3.57,1.24,3.26,1.24,5.2l-.04.54Zm-13.27-7.97c-1.12.62-2.02,1.5-2.69,2.64-.68,1.13-1.06,2.42-1.17,3.84h15.29c-.08-1.43-.46-2.7-1.15-3.82-.69-1.12-1.59-2-2.71-2.64-1.12-.64-2.38-.96-3.78-.96s-2.66.31-3.78.94Z"/>
        <path class="cls-2" d="m272.93,222.65c1.32,1.26,1.99,3.12,1.99,5.56v12.65h-1.83v-3.56c-.64,1.17-1.57,2.08-2.79,2.73-1.22.65-2.69.98-4.4.98-2.22,0-3.97-.52-5.26-1.57-1.29-1.04-1.93-2.42-1.93-4.13s.59-3,1.78-4.03,3.08-1.55,5.68-1.55h6.84v-1.61c0-1.86-.5-3.27-1.51-4.24-1.01-.97-2.48-1.45-4.42-1.45-1.33,0-2.59.23-3.8.69-1.21.46-2.24,1.07-3.08,1.83l-.96-1.38c.99-.89,2.19-1.59,3.59-2.08,1.4-.5,2.87-.75,4.4-.75,2.47,0,4.37.63,5.7,1.89Zm-2.54,15.65c1.16-.76,2.03-1.87,2.62-3.33v-3.75h-6.8c-1.96,0-3.38.36-4.26,1.07-.88.71-1.32,1.7-1.32,2.94s.48,2.33,1.45,3.08c.97.75,2.33,1.13,4.09,1.13,1.66,0,3.06-.38,4.22-1.15Z"/>
        <path class="cls-2" d="m313.85,222.94c1.41,1.45,2.12,3.54,2.12,6.27v11.66h-1.91v-11.51c0-2.24-.55-3.95-1.64-5.12-1.1-1.17-2.62-1.76-4.59-1.76-2.24,0-4.02.7-5.33,2.1-1.31,1.4-1.97,3.29-1.97,5.66v10.63h-1.91v-11.51c0-2.24-.55-3.95-1.64-5.12-1.1-1.17-2.62-1.76-4.59-1.76-2.24,0-4.02.7-5.33,2.1-1.31,1.4-1.97,3.29-1.97,5.66v10.63h-1.91v-19.96h1.83v4.28c.66-1.4,1.65-2.49,2.96-3.27,1.31-.78,2.87-1.17,4.68-1.17s3.35.41,4.61,1.22c1.26.82,2.16,2.01,2.7,3.59.66-1.48,1.7-2.65,3.12-3.52,1.41-.87,3.06-1.3,4.95-1.3,2.47,0,4.42.73,5.83,2.18Z"/>
        <path class="cls-2" d="m326.96,239.72c-1.52-.87-2.71-2.07-3.57-3.61-.87-1.54-1.3-3.28-1.3-5.22s.43-3.68,1.3-5.22c.87-1.54,2.06-2.75,3.57-3.61,1.52-.87,3.22-1.3,5.1-1.3s3.59.43,5.1,1.3c1.52.87,2.71,2.07,3.57,3.61.87,1.54,1.3,3.28,1.3,5.22s-.43,3.68-1.3,5.22c-.87,1.54-2.06,2.75-3.57,3.61-1.52.87-3.22,1.3-5.1,1.3s-3.59-.43-5.1-1.3Zm9.21-1.49c1.21-.71,2.17-1.71,2.87-2.98.7-1.27,1.05-2.73,1.05-4.36s-.35-3.08-1.05-4.36c-.7-1.27-1.66-2.27-2.87-2.98-1.21-.71-2.58-1.07-4.11-1.07s-2.9.36-4.11,1.07c-1.21.71-2.17,1.71-2.87,2.98-.7,1.28-1.05,2.73-1.05,4.36s.35,3.08,1.05,4.36c.7,1.27,1.66,2.27,2.87,2.98,1.21.71,2.58,1.07,4.11,1.07s2.9-.36,4.11-1.07Z"/>
        <path class="cls-2" d="m353.05,221.92c1.3-.78,2.88-1.17,4.74-1.17v1.87l-.46-.04c-2.22,0-3.95.7-5.2,2.08-1.25,1.39-1.87,3.32-1.87,5.79v10.4h-1.91v-19.96h1.83v4.36c.61-1.45,1.57-2.57,2.87-3.35Z"/>
        <path class="cls-2" d="m364.33,238.25c.31.32.46.69.46,1.13,0,.25-.03.52-.1.8-.06.28-.15.6-.25.96l-1.49,5.2h-1.38l1.26-5.39c-.38-.1-.69-.29-.92-.55-.23-.27-.34-.61-.34-1.01,0-.46.15-.84.46-1.15.31-.31.69-.46,1.15-.46s.84.16,1.15.48Z"/>
        <path class="cls-2" d="m399.39,220.91v27.37h-1.91v-12.04c-.82,1.5-1.93,2.68-3.35,3.52s-3.01,1.26-4.8,1.26-3.54-.43-5.05-1.28c-1.5-.85-2.68-2.05-3.54-3.59-.85-1.54-1.28-3.29-1.28-5.26s.43-3.71,1.28-5.24c.85-1.53,2.03-2.73,3.54-3.59,1.5-.87,3.19-1.3,5.05-1.3s3.43.42,4.85,1.26c1.43.84,2.54,2.04,3.33,3.59v-4.7h1.87Zm-5.83,17.32c1.21-.71,2.17-1.71,2.87-2.98.7-1.27,1.05-2.73,1.05-4.36s-.35-3.08-1.05-4.36c-.7-1.27-1.66-2.27-2.87-2.98-1.21-.71-2.58-1.07-4.11-1.07s-2.9.36-4.11,1.07c-1.21.71-2.17,1.71-2.87,2.98-.7,1.28-1.05,2.73-1.05,4.36s.35,3.08,1.05,4.36c.7,1.27,1.66,2.27,2.87,2.98,1.21.71,2.58,1.07,4.11,1.07s2.9-.36,4.11-1.07Z"/>
        <path class="cls-2" d="m425.3,220.91v19.96h-1.83v-4.28c-.66,1.4-1.64,2.49-2.94,3.27s-2.83,1.17-4.59,1.17c-2.6,0-4.64-.73-6.12-2.18-1.48-1.45-2.22-3.54-2.22-6.27v-11.66h1.91v11.51c0,2.24.57,3.95,1.72,5.12,1.15,1.17,2.77,1.76,4.85,1.76,2.24,0,4.02-.7,5.33-2.1,1.31-1.4,1.97-3.29,1.97-5.66v-10.63h1.91Z"/>
        <path class="cls-2" d="m450.65,231.35h-17.16c.05,1.55.45,2.94,1.19,4.15.74,1.21,1.74,2.15,3,2.81,1.26.66,2.68.99,4.26.99,1.3,0,2.5-.24,3.61-.71,1.11-.47,2.03-1.17,2.77-2.08l1.11,1.26c-.87,1.05-1.96,1.85-3.27,2.41-1.31.56-2.73.84-4.26.84-1.99,0-3.76-.43-5.31-1.3-1.55-.87-2.77-2.06-3.65-3.59-.88-1.53-1.32-3.27-1.32-5.24s.41-3.68,1.24-5.22c.83-1.54,1.97-2.75,3.42-3.61,1.45-.87,3.08-1.3,4.89-1.3s3.43.43,4.87,1.28,2.57,2.04,3.4,3.57,1.24,3.26,1.24,5.2l-.04.54Zm-13.27-7.97c-1.12.62-2.02,1.5-2.69,2.64-.68,1.13-1.06,2.42-1.17,3.84h15.29c-.08-1.43-.46-2.7-1.15-3.82-.69-1.12-1.59-2-2.71-2.64-1.12-.64-2.38-.96-3.78-.96s-2.66.31-3.78.94Z"/>
        <path class="cls-2" d="m484.06,231.35h-17.16c.05,1.55.45,2.94,1.19,4.15.74,1.21,1.74,2.15,3,2.81,1.26.66,2.68.99,4.26.99,1.3,0,2.5-.24,3.61-.71,1.11-.47,2.03-1.17,2.77-2.08l1.11,1.26c-.87,1.05-1.96,1.85-3.27,2.41-1.31.56-2.73.84-4.26.84-1.99,0-3.76-.43-5.31-1.3-1.55-.87-2.77-2.06-3.65-3.59-.88-1.53-1.32-3.27-1.32-5.24s.41-3.68,1.24-5.22c.83-1.54,1.97-2.75,3.42-3.61,1.45-.87,3.08-1.3,4.89-1.3s3.43.43,4.87,1.28,2.57,2.04,3.4,3.57,1.24,3.26,1.24,5.2l-.04.54Zm-13.27-7.97c-1.12.62-2.02,1.5-2.69,2.64-.68,1.13-1.06,2.42-1.17,3.84h15.29c-.08-1.43-.46-2.7-1.15-3.82-.69-1.12-1.59-2-2.71-2.64-1.12-.64-2.38-.96-3.78-.96s-2.66.31-3.78.94Z"/>
        <path class="cls-2" d="m490.86,240.29c-1.45-.48-2.59-1.1-3.4-1.83l.88-1.53c.82.69,1.87,1.26,3.15,1.72,1.29.46,2.63.69,4.03.69,2.01,0,3.5-.33,4.45-.99.96-.66,1.43-1.58,1.43-2.75,0-.84-.26-1.5-.78-1.99-.52-.48-1.17-.84-1.93-1.07s-1.82-.47-3.17-.73c-1.58-.28-2.85-.59-3.82-.92-.97-.33-1.8-.87-2.48-1.61s-1.03-1.76-1.03-3.06c0-1.58.66-2.89,1.97-3.92,1.31-1.03,3.18-1.55,5.6-1.55,1.27,0,2.54.18,3.78.54,1.25.36,2.27.83,3.06,1.42l-.88,1.53c-.82-.59-1.75-1.03-2.79-1.34-1.05-.31-2.12-.46-3.21-.46-1.86,0-3.26.34-4.21,1.03-.94.69-1.41,1.59-1.41,2.71,0,.89.27,1.59.8,2.08.54.5,1.19.87,1.97,1.11.78.24,1.87.5,3.27.78,1.55.28,2.81.58,3.77.9.96.32,1.76.83,2.43,1.55.66.71.99,1.69.99,2.94,0,1.66-.69,2.98-2.06,3.98-1.38.99-3.31,1.49-5.81,1.49-1.61,0-3.13-.24-4.59-.73Z"/>
        <path class="cls-2" d="m536.13,231.35h-17.16c.05,1.55.45,2.94,1.19,4.15.74,1.21,1.74,2.15,3,2.81,1.26.66,2.68.99,4.26.99,1.3,0,2.5-.24,3.61-.71,1.11-.47,2.03-1.17,2.77-2.08l1.11,1.26c-.87,1.05-1.96,1.85-3.27,2.41-1.31.56-2.73.84-4.26.84-1.99,0-3.76-.43-5.31-1.3-1.55-.87-2.77-2.06-3.65-3.59-.88-1.53-1.32-3.27-1.32-5.24s.41-3.68,1.24-5.22c.83-1.54,1.97-2.75,3.42-3.61,1.45-.87,3.08-1.3,4.89-1.3s3.43.43,4.87,1.28,2.57,2.04,3.4,3.57,1.24,3.26,1.24,5.2l-.04.54Zm-13.27-7.97c-1.12.62-2.02,1.5-2.69,2.64-.68,1.13-1.06,2.42-1.17,3.84h15.29c-.08-1.43-.46-2.7-1.15-3.82-.69-1.12-1.59-2-2.71-2.64-1.12-.64-2.38-.96-3.78-.96s-2.66.31-3.78.94Z"/>
        <path class="cls-2" d="m542.47,212.5h1.91v28.37h-1.91v-28.37Z"/>
        <path class="cls-2" d="m579.05,220.91l-9.02,19.96h-1.95l-8.98-19.96h2.03l7.95,17.85,8.03-17.85h1.95Z"/>
        <path class="cls-2" d="m587.69,213.15h2.75l-6,4.51h-2.06l5.31-4.51Zm-4.09,7.76h1.91v19.96h-1.91v-19.96Z"/>
        <path class="cls-2" d="m609.64,222.94c1.45,1.45,2.18,3.54,2.18,6.27v11.66h-1.91v-11.51c0-2.24-.57-3.95-1.7-5.12s-2.72-1.76-4.76-1.76c-2.35,0-4.19.7-5.54,2.1s-2.03,3.29-2.03,5.66v10.63h-1.91v-19.96h1.83v4.32c.69-1.4,1.71-2.5,3.08-3.29,1.36-.79,2.97-1.19,4.84-1.19,2.5,0,4.47.73,5.92,2.18Z"/>
        <path class="cls-2" d="m622.83,239.72c-1.53-.87-2.73-2.07-3.59-3.61-.87-1.54-1.3-3.28-1.3-5.22s.43-3.71,1.3-5.26c.87-1.54,2.06-2.74,3.59-3.59s3.26-1.28,5.2-1.28c1.61,0,3.06.31,4.38.94,1.31.62,2.38,1.54,3.19,2.73l-1.42,1.03c-.71-.99-1.6-1.74-2.66-2.24s-2.22-.75-3.5-.75c-1.55,0-2.95.35-4.19,1.05-1.24.7-2.2,1.69-2.91,2.96-.7,1.27-1.05,2.74-1.05,4.4s.35,3.12,1.05,4.4,1.67,2.26,2.91,2.96,2.63,1.05,4.19,1.05c1.27,0,2.44-.25,3.5-.75s1.94-1.24,2.66-2.24l1.42,1.03c-.82,1.2-1.88,2.11-3.19,2.73-1.31.62-2.77.94-4.38.94-1.94,0-3.67-.43-5.2-1.3Z"/>
        <path class="cls-2" d="m659.18,220.91v19.96h-1.83v-4.28c-.66,1.4-1.64,2.49-2.94,3.27s-2.83,1.17-4.59,1.17c-2.6,0-4.64-.73-6.12-2.18-1.48-1.45-2.22-3.54-2.22-6.27v-11.66h1.91v11.51c0,2.24.57,3.95,1.72,5.12,1.15,1.17,2.77,1.76,4.86,1.76,2.24,0,4.02-.7,5.33-2.1,1.31-1.4,1.97-3.29,1.97-5.66v-10.63h1.91Z"/>
        <path class="cls-2" d="m667.66,212.5h1.91v28.37h-1.91v-28.37Z"/>
        <path class="cls-2" d="m680.72,239.72c-1.52-.87-2.71-2.07-3.57-3.61-.87-1.54-1.3-3.28-1.3-5.22s.43-3.68,1.3-5.22,2.06-2.75,3.57-3.61c1.52-.87,3.22-1.3,5.1-1.3s3.59.43,5.1,1.3c1.52.87,2.71,2.07,3.57,3.61s1.3,3.28,1.3,5.22-.43,3.68-1.3,5.22c-.87,1.54-2.06,2.75-3.57,3.61s-3.22,1.3-5.1,1.3-3.59-.43-5.1-1.3Zm9.21-1.49c1.21-.71,2.17-1.71,2.87-2.98s1.05-2.73,1.05-4.36-.35-3.08-1.05-4.36c-.7-1.27-1.66-2.27-2.87-2.98-1.21-.71-2.58-1.07-4.11-1.07s-2.9.36-4.11,1.07c-1.21.71-2.17,1.71-2.87,2.98-.7,1.28-1.05,2.73-1.05,4.36s.35,3.08,1.05,4.36,1.66,2.27,2.87,2.98c1.21.71,2.58,1.07,4.11,1.07s2.9-.36,4.11-1.07Z"/>
        <path class="cls-2" d="m727.38,222.06c1.5.87,2.68,2.06,3.54,3.59.85,1.53,1.28,3.28,1.28,5.24s-.43,3.71-1.28,5.26c-.85,1.54-2.03,2.74-3.54,3.59-1.5.85-3.19,1.28-5.05,1.28-1.76,0-3.35-.41-4.78-1.24-1.43-.83-2.54-1.98-3.33-3.46v11.96h-1.91v-27.37h1.83v4.7c.79-1.53,1.91-2.72,3.35-3.57,1.44-.85,3.05-1.28,4.84-1.28s3.54.43,5.05,1.3Zm-1.03,16.17c1.22-.71,2.18-1.71,2.89-2.98s1.05-2.73,1.05-4.36-.35-3.08-1.05-4.36c-.7-1.27-1.66-2.27-2.89-2.98-1.22-.71-2.6-1.07-4.13-1.07s-2.9.36-4.11,1.07c-1.21.71-2.17,1.71-2.87,2.98-.7,1.28-1.05,2.73-1.05,4.36s.35,3.08,1.05,4.36,1.66,2.27,2.87,2.98c1.21.71,2.58,1.07,4.11,1.07s2.91-.36,4.13-1.07Z"/>
        <path class="cls-2" d="m755.36,231.35h-17.17c.05,1.55.45,2.94,1.19,4.15.74,1.21,1.74,2.15,3,2.81,1.26.66,2.68.99,4.26.99,1.3,0,2.5-.24,3.61-.71s2.03-1.17,2.77-2.08l1.11,1.26c-.87,1.05-1.96,1.85-3.27,2.41-1.31.56-2.73.84-4.26.84-1.99,0-3.76-.43-5.31-1.3s-2.77-2.06-3.65-3.59c-.88-1.53-1.32-3.27-1.32-5.24s.41-3.68,1.24-5.22,1.97-2.75,3.42-3.61c1.45-.87,3.08-1.3,4.89-1.3s3.43.43,4.87,1.28c1.44.85,2.57,2.04,3.4,3.57.83,1.53,1.24,3.26,1.24,5.2l-.04.54Zm-13.27-7.97c-1.12.62-2.02,1.5-2.7,2.64-.67,1.13-1.06,2.42-1.17,3.84h15.29c-.08-1.43-.46-2.7-1.15-3.82-.69-1.12-1.59-2-2.71-2.64-1.12-.64-2.38-.96-3.78-.96s-2.66.31-3.79.94Z"/>
        <path class="cls-2" d="m766.41,221.92c1.3-.78,2.88-1.17,4.74-1.17v1.87l-.46-.04c-2.22,0-3.95.7-5.2,2.08-1.25,1.39-1.87,3.32-1.87,5.79v10.4h-1.91v-19.96h1.83v4.36c.61-1.45,1.57-2.57,2.87-3.35Z"/>
        <path class="cls-2" d="m779.41,218.01v2.91h6.38v1.64h-6.35v18.31h-1.91v-18.31h-3.67v-1.64h3.67v-3.06c0-1.68.48-3.02,1.45-4.01s2.33-1.49,4.09-1.49c.76,0,1.5.11,2.2.33.7.22,1.28.54,1.74.97l-.76,1.45c-.82-.74-1.85-1.11-3.1-1.11-2.5,0-3.75,1.34-3.75,4.01Z"/>
        <path class="cls-2" d="m806.59,231.35h-17.17c.05,1.55.45,2.94,1.19,4.15.74,1.21,1.74,2.15,3,2.81,1.26.66,2.68.99,4.26.99,1.3,0,2.5-.24,3.61-.71s2.03-1.17,2.77-2.08l1.11,1.26c-.87,1.05-1.96,1.85-3.27,2.41-1.31.56-2.73.84-4.26.84-1.99,0-3.76-.43-5.31-1.3s-2.77-2.06-3.65-3.59c-.88-1.53-1.32-3.27-1.32-5.24s.41-3.68,1.24-5.22,1.97-2.75,3.42-3.61c1.45-.87,3.08-1.3,4.89-1.3s3.43.43,4.87,1.28c1.44.85,2.57,2.04,3.4,3.57.83,1.53,1.24,3.26,1.24,5.2l-.04.54Zm-13.27-7.97c-1.12.62-2.02,1.5-2.7,2.64-.67,1.13-1.06,2.42-1.17,3.84h15.29c-.08-1.43-.46-2.7-1.15-3.82-.69-1.12-1.59-2-2.71-2.64-1.12-.64-2.38-.96-3.78-.96s-2.66.31-3.79.94Z"/>
        <path class="cls-2" d="m815.64,239.72c-1.53-.87-2.73-2.07-3.59-3.61-.87-1.54-1.3-3.28-1.3-5.22s.43-3.71,1.3-5.26c.87-1.54,2.06-2.74,3.59-3.59s3.26-1.28,5.2-1.28c1.61,0,3.06.31,4.38.94,1.31.62,2.38,1.54,3.19,2.73l-1.42,1.03c-.71-.99-1.6-1.74-2.66-2.24s-2.22-.75-3.5-.75c-1.55,0-2.95.35-4.19,1.05-1.24.7-2.2,1.69-2.91,2.96-.7,1.27-1.05,2.74-1.05,4.4s.35,3.12,1.05,4.4,1.67,2.26,2.91,2.96,2.63,1.05,4.19,1.05c1.27,0,2.44-.25,3.5-.75s1.94-1.24,2.66-2.24l1.42,1.03c-.82,1.2-1.88,2.11-3.19,2.73-1.31.62-2.77.94-4.38.94-1.94,0-3.67-.43-5.2-1.3Z"/>
        <path class="cls-2" d="m844.66,239.6c-.48.46-1.09.81-1.82,1.05-.73.24-1.49.36-2.27.36-1.73,0-3.07-.48-4.01-1.43-.94-.96-1.41-2.29-1.41-4v-13.04h-3.67v-1.64h3.67v-4.36h1.91v4.36h6.35v1.64h-6.35v12.84c0,1.3.31,2.29.94,2.96.62.68,1.55,1.01,2.77,1.01s2.28-.37,3.1-1.11l.8,1.34Z"/>
        <path class="cls-2" d="m852.32,239.72c-1.52-.87-2.71-2.07-3.57-3.61-.87-1.54-1.3-3.28-1.3-5.22s.43-3.68,1.3-5.22,2.06-2.75,3.57-3.61c1.52-.87,3.22-1.3,5.1-1.3s3.59.43,5.1,1.3c1.52.87,2.71,2.07,3.57,3.61s1.3,3.28,1.3,5.22-.43,3.68-1.3,5.22c-.87,1.54-2.06,2.75-3.57,3.61s-3.22,1.3-5.1,1.3-3.59-.43-5.1-1.3Zm9.21-1.49c1.21-.71,2.17-1.71,2.87-2.98s1.05-2.73,1.05-4.36-.35-3.08-1.05-4.36c-.7-1.27-1.66-2.27-2.87-2.98-1.21-.71-2.58-1.07-4.11-1.07s-2.9.36-4.11,1.07c-1.21.71-2.17,1.71-2.87,2.98-.7,1.28-1.05,2.73-1.05,4.36s.35,3.08,1.05,4.36,1.66,2.27,2.87,2.98c1.21.71,2.58,1.07,4.11,1.07s2.9-.36,4.11-1.07Z"/>
        <path class="cls-2" d="m874.48,212.83c.31.32.46.69.46,1.13,0,.26-.03.52-.1.8-.06.28-.15.6-.25.96l-1.49,5.2h-1.38l1.26-5.39c-.38-.1-.69-.29-.92-.55s-.34-.61-.34-1.01c0-.46.15-.84.46-1.15s.69-.46,1.15-.46.84.16,1.15.48Zm5.85,0c.31.32.46.69.46,1.13,0,.26-.03.52-.1.8-.06.28-.15.6-.25.96l-1.49,5.2h-1.38l1.26-5.39c-.38-.1-.69-.29-.92-.55s-.34-.61-.34-1.01c0-.46.15-.84.46-1.15.31-.31.69-.46,1.15-.46s.84.16,1.15.48Z"/>
      </g>
    </g>
  </g>
</svg>